<svg xmlns="http://www.w3.org/2000/svg" viewBox="0 0 203 196">
    <style type="text/css">
    .st0 {
        fill: #A3B18A;
    }

    .st1 {
        fill: #344E41;
    }
    </style>
    <path class="st0" d="M100.2,77.9c-0.2-0.3-0.2-0.6-0.1-0.9c0.1-0.4,0.4-0.8,0.7-1c0.3-0.3,0.7-0.4,1-0.2
    c0.4,0.1,0.8,0.4,1,0.7c0.2,0.3,0.2,0.6,0.1,1c-0.1,0.4-0.3,0.7-0.6,1c-0.2,0.2-0.4,0.3-0.6,0.3c-0.3,0-0.5,0-0.8-0.1
    C100.6,78.4,100.3,78.2,100.2,77.9z" />
    <path class="st1" d="M14.7,41.8c-1.6,2.2-3.1,4.5-4.4,6.8c-4.3,8-6.5,17-8,26c-2.6,15.3-3.4,31.1-0.6,46.3
    c3.4,18.5,12.6,35.4,26.3,48.3c0.1,0.4,0.3,0.7,0.7,0.7c3.9,3.8,8.5,6.8,13.4,9.1c20.9,10,39.6,16.2,61.2,17s41.4-6.3,58.6-18.6
    c10-7.2,19.5-15.5,26.1-25.9c6.2-9.7,9.9-20.9,12.1-32.2c5.3-26.4,3-54.6-9-78.7c-3-6.3-7.1-12.1-12-17.1
    c-5.7-5.6-12.9-9.5-20.2-12.6c-34.2-14.9-72-14-106.1,0c-2.4,1.1-4.6,2.4-6.8,3.9C34.8,22.6,23,30.6,14.7,41.8z" />
    <path class="st0" d="M120.8,13.9L120.8,13.9c11.9,1.7,23.4,5.3,34.1,10.7c3.1,1.5,6,3.3,8.9,5.2
    c5.4,3.6,9.9,8.4,13.2,14.1c1.5,2.6,2.9,5.3,4.1,8.1c2.3,5.4,4,10.9,5.3,16.6c1.2,5.7,2,11.5,2.3,17.3c0.3,5.9,0.1,11.7-0.5,17.5
    c-0.6,5.8-1.6,11.6-3.1,17.3c-2.8,11.2-6.7,20.2-11.9,27.5c-1.5,2.2-3.2,4.3-5,6.2c-1.8,2-3.7,3.8-5.7,5.6c-4,3.5-8.3,6.7-12.7,9.6
    c-7.4,4.9-15.6,8.7-24.2,11.1c-4.3,1.2-8.6,2-13,2.4c-4.5,0.4-9,0.5-13.6,0.1c-1.9-0.2-3.8-0.4-5.7-0.6c-7.9-1.1-15.6-3.1-23-6
    c-3.6-1.4-7.3-2.9-11.2-4.8c-3.6-1.7-7.3-3.6-11.4-5.9c-4.1-2.2-7.8-5-10.9-8.4c-0.4-0.1-0.8-0.5-0.9-1c-2.7-2.9-5.2-6-7.4-9.3
    c-2.3-3.3-4.2-6.8-5.9-10.5c-3.4-7.4-5.7-15.2-6.7-23.3c-0.4-3.3-0.6-6.7-0.7-10.1c-0.1-3.3,0.1-6.7,0.3-10.1
    c0.3-3.3,0.7-6.6,1.2-10.1c0.5-3.2,1.1-6.6,1.9-9.9c0.8-3.9,1.9-7.7,3.1-11.5c1.3-3.8,2.9-7.4,4.9-10.8c1.2-2,2.6-4,4.1-5.8
    c7.6-9.4,18-15.9,28-22.1l0.1,0c1.9-1.3,3.9-2.3,6-3.1c9-3.3,18.4-5.5,27.9-6.5C101.9,12.4,111.4,12.6,120.8,13.9z M93.3,181.3
    c1.8,0.3,3.7,0.5,5.6,0.6c4.4,0.4,8.9,0.3,13.3-0.1c4.3-0.4,8.6-1.2,12.8-2.4c8.5-2.4,16.5-6.1,23.8-10.9c4.4-2.8,8.6-6,12.6-9.5
    c2-1.7,3.8-3.6,5.6-5.5c1.8-1.9,3.4-4,4.9-6.1c5.1-7.2,8.9-16,11.7-27.1c1.4-5.6,2.4-11.3,3-17.1c0.6-5.8,0.8-11.6,0.5-17.3
    c-0.3-5.7-1-11.5-2.2-17.1c-1.2-5.6-3-11.1-5.2-16.4c-1.2-2.8-2.5-5.4-4-8c-3.2-5.5-7.5-10.1-12.8-13.6c-2.8-1.9-5.7-3.6-8.7-5.1
    c-10.6-5.4-21.9-8.9-33.7-10.6l0,0c-9.2-1.3-18.6-1.4-27.9-0.4c-9.4,1.1-18.7,3.2-27.6,6.5c-2,0.8-4,1.8-5.8,3l-0.1,0
    c-9.9,6.2-20.2,12.6-27.7,21.8c-1.4,1.8-2.8,3.7-4,5.6c-2,3.3-3.6,6.9-4.8,10.5c-1.3,3.7-2.3,7.5-3.1,11.3c-0.7,3.4-1.4,6.7-1.9,9.9
    c-0.5,3.4-0.9,6.7-1.2,10c-0.3,3.4-0.4,6.8-0.3,10c0.1,3.3,0.3,6.6,0.7,9.9c1,7.9,3.2,15.6,6.6,22.9c1.7,3.6,3.6,7,5.8,10.3
    c2.2,3.3,4.7,6.4,7.4,9.2L37,156l0,0.2c0,0,0,0.1,0,0.1l0.2,0l0.2,0.2c3.1,3.3,6.7,6.1,10.7,8.2c4,2.2,7.8,4.2,11.3,5.9
    c3.9,1.8,7.5,3.4,11.1,4.8C78,178.2,85.6,180.2,93.3,181.3z" />
    <path class="st0" d="M76.7,73.7c2,2.1,4.7,3.3,7.6,3.3l0,0c0.6,0,1.2-0.1,1.7-0.2c0,0,0.1,0,0.1,0l2.1,2L81.7,80
    c-0.4-0.9-1.5-1.3-2.4-0.9c-0.9,0.4-1.3,1.5-0.9,2.4c0.4,0.9,1.5,1.3,2.4,0.9c0.6-0.3,1-0.9,1-1.7v0l7-1.2l0,0l8.5,8.3
    c0.1,0.2,0.4,0.2,0.6,0c0.2-0.1,0.2-0.4,0-0.6l0,0c0,0,0,0,0,0L96.7,86v-6.4c0-0.2-0.2-0.4-0.4-0.4s-0.4,0.2-0.4,0.4c0,0,0,0,0,0
    v5.7l-2.8-2.7v-3.8c0-0.2-0.2-0.4-0.4-0.4c-0.2,0-0.4,0.2-0.4,0.4c0,0,0,0,0,0v3.1l-3-3l0.1-7.5c3.9-3,4.7-8.7,1.7-12.7
    c-0.5-0.6-1-1.2-1.7-1.7h0c0,0,0,0-0.1,0l0,0c0,0,0,0-0.1,0h0c0,0,0,0-0.1,0h0c0,0,0,0-0.1,0h0c0,0,0,0,0,0l0,0c0,0,0,0-0.1,0l0,0
    c-2.3,1.7-3.6,4.3-3.5,7.2c-0.1,2.7,1.1,5.3,3.2,6.9L88.5,78l-2-2c0.3-3.3-0.9-6.5-3.3-8.8c-2-2.1-4.7-3.3-7.6-3.3
    c-0.6,0-1.2,0.1-1.7,0.2l0,0c0,0,0,0-0.1,0l0,0c0,0,0,0,0,0l0,0c0,0,0,0-0.1,0l0,0l0,0c0,0,0,0,0,0l0,0c0,0,0,0,0,0c0,0,0,0,0,0
    c0,0,0,0,0,0.1v0l0,0C73,67.8,74.2,71.3,76.7,73.7z M80.1,81.8c-0.6,0-1-0.5-1-1c0-0.6,0.5-1,1-1c0.6,0,1,0.5,1,1
    C81.1,81.3,80.7,81.8,80.1,81.8L80.1,81.8z M86.7,60.8l1.9,2.4l0,3.8l-2.4-3c0,0-0.1-0.1-0.1-0.1C86.1,62.9,86.3,61.8,86.7,60.8
    L86.7,60.8z M92,63.9c-0.1,0-0.2,0.1-0.3,0.1l-2.4,3.1l0-3.6h0c0.1,0,0.2-0.1,0.3-0.2l1.8-2.3C91.8,62,92,62.9,92,63.9L92,63.9z
     M89.3,70.3l0-2.2l0,0c0.1,0,0.2-0.1,0.3-0.2l2.3-3C91.9,67.1,90.9,69,89.3,70.3L89.3,70.3z M91.2,60.3l-1.7,2.2l0-4.4
    C90.2,58.7,90.7,59.5,91.2,60.3L91.2,60.3z M88.7,58.1l0,3.9l-1.4-1.8c0,0-0.1-0.1-0.1-0.1C87.5,59.3,88,58.7,88.7,58.1L88.7,58.1z
     M86.2,65.2l2.2,2.7c0.1,0.1,0.1,0.1,0.2,0.1l0,2C87.2,68.8,86.4,67.1,86.2,65.2L86.2,65.2z M84.3,76.3L84.3,76.3
    c-2.7-0.1-5.2-1.2-7.1-3.1c-2.1-2-3.3-5-3.1-7.9l11.3,10.9C85.1,76.3,84.7,76.3,84.3,76.3L84.3,76.3z M82.6,67.8
    c2.1,2,3.2,4.7,3.1,7.6l-11-10.6c0.3,0,0.5,0,0.8,0C78.2,64.8,80.8,65.9,82.6,67.8L82.6,67.8z M142.3,123.1
    C142.3,123.1,142.3,123.1,142.3,123.1c0-0.1,0.1-0.1,0.1-0.1v0c0,0,0,0,0-0.1v0c0,0,0,0,0-0.1v0c-0.5-2.3-2.2-4.2-4.4-5
    c-1-0.4-2-0.6-3-0.6c-1.2,0-2.4,0.3-3.5,1l-7.4-2.2c0.9-0.4,1.7-0.9,2.5-1.5c0.2-0.2,0.5-0.4,0.7-0.6c0.1,0,0.1,0.1,0.2,0.1h0
    l6.6-0.7c0.2,0.8,1.1,1.3,2,1.1c0.8-0.2,1.3-1.1,1.1-2c-0.2-0.8-1.1-1.3-2-1.1c-0.6,0.2-1,0.6-1.1,1.2l-5.8,0.6c1.1-1,2-2.2,2.8-3.4
    c0.1,0,0.1,0,0.2,0c0,0,0.1,0,0.1,0c2.9-1.1,4.4-4.3,3.3-7.2c-0.2-0.5-0.4-0.9-0.7-1.3c-0.1-0.1-0.3-0.2-0.4-0.1
    c-1.7,0.6-2.9,1.9-3.4,3.6c-0.5,1.4-0.3,3,0.4,4.3c-0.8,1.3-1.7,2.5-2.8,3.5l-1.2-5.1c0.8-0.2,1.3-1.1,1.1-2c-0.2-0.8-1.1-1.3-2-1.1
    c-0.8,0.2-1.3,1.1-1.1,2c0.2,0.6,0.6,1,1.2,1.1l1.3,5.7c-1.2,1-2.6,1.9-4.1,2.5c-0.2,0-0.3,0-0.4,0.2l-0.1,0l0.4-6.3
    c0-0.2-0.1-0.4-0.4-0.4c-0.2,0-0.4,0.1-0.4,0.4l0,0l0,0l-0.5,6.6c-2,0.6-4.1,0.7-6.1,0.4l2.7-3.6c0.1-0.2,0.1-0.4-0.1-0.5
    c-0.2-0.1-0.4-0.1-0.5,0.1l-3,4c-0.2,0.1-0.3,0.4-0.2,0.6c0,0.1,0.1,0.1,0.2,0.2l3.1,3.1c0,0,0,0.1,0,0.1l0.5,8.5
    c-2.1,1.7-3.2,4.3-3,7c0.1,2.7,1.6,5.1,3.9,6.5l0,0h0c0,0,0,0,0.1,0h0c0,0,0,0,0.1,0h0c0,0,0,0,0.1,0l0,0c0,0,0,0,0.1,0l0,0
    c0,0,0,0,0.1,0h0c2.1-1.7,3.2-4.3,3-7c-0.1-2.5-1.5-4.9-3.6-6.3l-0.5-8l1.7,1.7c-0.4,3.3,0.8,6.7,3.2,9l0,0c2,2.1,4.7,3.3,7.6,3.3
    l0,0c0.6,0,1.2-0.1,1.7-0.2l0,0c0,0,0,0,0.1,0l0,0c0,0,0,0,0,0l0,0c0,0,0,0,0-0.1l0,0v0c0,0,0,0,0,0l0,0c0,0,0,0,0,0c0,0,0,0,0,0
    c0,0,0,0,0-0.1v0c0.6-3.4-0.6-6.9-3.2-9.3l0,0l0,0c-2-2.1-4.7-3.3-7.6-3.3c-0.6,0-1.1,0.1-1.7,0.2l-4.7-4.7c2.4,0.3,4.8,0,7-0.9
    l8.3,2.5c0.6,2.2,2.2,4,4.3,4.8c1,0.4,2,0.6,3,0.6l0,0c1.3,0,2.6-0.4,3.6-1.1l0,0l0,0L142.3,123.1L142.3,123.1L142.3,123.1
    C142.3,123.1,142.3,123.1,142.3,123.1L142.3,123.1z M135.6,112c0.4,0,0.8,0.4,0.8,0.8c0,0.4-0.4,0.8-0.8,0.8s-0.8-0.4-0.8-0.8l0,0
    C134.8,112.4,135.1,112,135.6,112L135.6,112z M130.8,104.9c-0.5-1.1,0-2.4,1.1-2.9c1.1-0.5,2.4,0,2.9,1.1c0.5,1,0.1,2.2-0.8,2.8
    c-0.4,1.3-1.2,2.3-2.4,2.9c0.9-1.6,1.5-3.3,1.8-5c0-0.2-0.1-0.4-0.3-0.5c-0.2,0-0.4,0.1-0.5,0.3l0,0c-0.3,1.6-0.9,3.2-1.6,4.6
    C130.5,107.1,130.5,106,130.8,104.9L130.8,104.9z M125.2,105.8c0-0.4,0.4-0.8,0.8-0.8s0.8,0.4,0.8,0.8c0,0.4-0.4,0.8-0.8,0.8l0,0
    C125.6,106.6,125.2,106.3,125.2,105.8L125.2,105.8z M116,135.7c-0.2-2.2,0.6-4.4,2.2-5.9l0.7,11.4
    C117.2,139.8,116.1,137.8,116,135.7L116,135.7z M121.8,135.3c0.2,2.1-0.6,4.3-2.1,5.8l-0.6-11.2
    C120.7,131.3,121.7,133.2,121.8,135.3L121.8,135.3z M120.9,123.3l2.4,2.4l0,4.7C121.6,128.4,120.8,125.9,120.9,123.3L120.9,123.3z
     M129.5,125.8c0.9,1,1.7,2.1,2.2,3.4l-4.5-0.7l-2.8-2.8L129.5,125.8z M126.5,128.8l0.3,4.3c-1-0.5-1.9-1.2-2.7-1.9l0-4.7
    L126.5,128.8z M131.1,134.2c-1.2,0-2.3-0.2-3.4-0.7l-0.3-3.8l4.5,4.5C131.6,134.2,131.3,134.2,131.1,134.2L131.1,134.2z
     M132.4,133.6l-4.2-4.2l3.7,0.6c0,0,0.1,0,0.1,0C132.4,131.1,132.6,132.4,132.4,133.6L132.4,133.6z M122.3,122.6
    c2.3,0,4.5,0.9,6.3,2.4l-4.9-0.1c0,0-0.1,0-0.1,0l-2.3-2.2C121.7,122.6,122,122.6,122.3,122.6L122.3,122.6z M137.7,118.5
    c1.7,0.7,3,2,3.7,3.7l-9-3.7c0.8-0.4,1.7-0.6,2.5-0.5C135.9,118,136.8,118.1,137.7,118.5L137.7,118.5z M138.5,123.5
    c-0.9,0-1.8-0.2-2.7-0.5c-1.7-0.7-3-2-3.7-3.7l9,3.7C140.3,123.3,139.4,123.5,138.5,123.5L138.5,123.5z M66.8,75
    c-0.2,0.4-0.3,1-0.2,1.5c0,0.2,0.2,0.3,0.3,0.3c0.6-0.5,1.5-0.4,2,0.2c0.2,0.2,0.3,0.5,0.3,0.7c0.1,0.1,0.3,0.1,0.4,0
    c0.1-0.1,0.3-0.2,0.4-0.3c0.5,4.7,4.9,8.2,10.2,8.2c0.2,0,0.3,0,0.5,0c0.2,0,0.4-0.2,0.4-0.4c0-0.2-0.2-0.4-0.4-0.4h0
    c-2,0.1-4.1-0.4-5.8-1.5l0,0l1.2-8.2c0-0.2-0.1-0.4-0.3-0.5s-0.4,0.1-0.5,0.3c0,0,0,0,0,0l-1.1,7.8c-2-1.4-3.2-3.6-3.3-6.1
    c0,0,0-0.1,0-0.1c0.3,0.1,0.5,0.1,0.8,0.1l0,0c0.1,0,0.3,0,0.4,0c0.2,0,0.3-0.2,0.3-0.3c-0.5-0.6-0.4-1.5,0.2-2
    c0.2-0.2,0.5-0.3,0.7-0.3c0.1-0.1,0.1-0.3,0-0.4c-0.8-0.1-1.4-0.8-1.3-1.6c0-0.3,0.1-0.5,0.3-0.7c0-0.2-0.2-0.3-0.3-0.3
    c-0.6,0.5-1.5,0.4-2-0.2c-0.2-0.2-0.3-0.5-0.3-0.7c-0.1-0.1-0.3-0.1-0.4,0c-0.1,0.8-0.8,1.4-1.6,1.3c-0.3,0-0.5-0.1-0.7-0.3
    c-0.2,0-0.3,0.2-0.3,0.3c0.5,0.6,0.4,1.5-0.2,2c-0.2,0.2-0.5,0.3-0.7,0.3c-0.1,0.1-0.1,0.3,0,0.4C65.9,74.5,66.3,74.8,66.8,75
    L66.8,75z M67.4,73.4c0.2,0,0.4-0.2,0.3-0.4c0-0.1,0-0.1-0.1-0.2c-0.3,0-0.6-0.3-0.6-0.6c0-0.3,0.3-0.6,0.6-0.6
    c0.3,0,0.5,0.3,0.6,0.6c0.2,0.1,0.4,0.1,0.6-0.1c0-0.1,0.1-0.1,0.1-0.2c-0.2-0.3-0.2-0.6,0.1-0.8s0.6-0.2,0.8,0.1
    c0.2,0.2,0.2,0.6,0,0.8c0,0.2,0.2,0.4,0.4,0.3c0.1,0,0.1,0,0.2-0.1c0-0.3,0.3-0.6,0.6-0.6c0.3,0,0.6,0.3,0.6,0.6
    c0,0.3-0.3,0.5-0.6,0.6C71,73,71,73.2,71.2,73.3c0.1,0,0.1,0.1,0.2,0.1c0.3-0.2,0.6-0.2,0.8,0.1s0.2,0.6-0.1,0.8
    c-0.2,0.2-0.6,0.2-0.8,0c-0.2,0-0.4,0.2-0.3,0.4c0,0.1,0,0.1,0.1,0.2c0.3,0,0.6,0.3,0.6,0.6c0,0.3-0.3,0.6-0.6,0.6
    c-0.3,0-0.5-0.3-0.6-0.6c-0.2-0.1-0.4-0.1-0.6,0.1c0,0.1-0.1,0.1-0.1,0.2c0.2,0.3,0.2,0.6-0.1,0.8s-0.6,0.2-0.8-0.1
    c-0.2-0.2-0.2-0.6,0-0.8c0-0.2-0.2-0.4-0.4-0.3c-0.1,0-0.1,0-0.2,0.1c0,0.3-0.3,0.6-0.6,0.6c-0.3,0-0.6-0.3-0.6-0.6
    c0-0.3,0.3-0.5,0.6-0.6c0.1-0.2,0.1-0.4-0.1-0.6c-0.1,0-0.1-0.1-0.2-0.1c-0.3,0.2-0.6,0.2-0.8-0.1s-0.2-0.6,0.1-0.8
    C66.9,73.2,67.2,73.2,67.4,73.4z M94.6,105.7c0.1,0.1,0.3,0.1,0.4,0c0.9-0.6,1.5-1.5,1.7-2.6c0.7,0.4,1.5,0.7,2.3,0.7l0,0
    c0.3,0,0.5,0,0.8-0.1c0.2,0,0.3-0.2,0.3-0.3c-1.1-1.1-1.1-2.9,0-4c0.5-0.5,1.2-0.8,1.9-0.8c0.1-0.1,0.1-0.3,0-0.4
    c-1.6,0-2.8-1.3-2.8-2.9c0-0.7,0.3-1.4,0.8-1.9c0-0.2-0.2-0.3-0.3-0.3C99.6,93,99.4,93,99.1,93c-0.8,0-1.6,0.2-2.3,0.7
    c-0.2-1.1-0.9-2-1.7-2.6c-0.1-0.1-0.3-0.1-0.4,0c-0.9,0.6-1.5,1.5-1.7,2.6c-0.7-0.4-1.5-0.7-2.3-0.7c-0.3,0-0.5,0-0.8,0.1
    c-0.2,0-0.3,0.2-0.3,0.3c1.1,1.1,1.1,2.9-0.1,4c-0.5,0.5-1.2,0.8-1.9,0.8c-0.1,0.1-0.1,0.3,0,0.4c1.6,0,2.8,1.3,2.8,2.9
    c0,0.7-0.3,1.4-0.8,1.9c0,0.2,0.2,0.3,0.3,0.3c0.2,0.1,0.5,0.1,0.8,0.1c0.8,0,1.6-0.2,2.3-0.7C93.1,104.2,93.7,105.1,94.6,105.7
    L94.6,105.7z M90.2,103c-0.1-1,0.2-1.9,0.8-2.7c0.1-0.2,0.1-0.4-0.1-0.6c-0.1,0-0.1-0.1-0.2-0.1c-0.7,0.5-1.7,0.3-2.2-0.4
    c-0.5-0.7-0.3-1.7,0.4-2.2c0.5-0.4,1.3-0.4,1.8,0c0.2,0,0.4-0.2,0.3-0.4c0-0.1,0-0.1-0.1-0.2c-0.6-0.8-0.9-1.7-0.8-2.7
    c0.1,0,0.2,0,0.3,0c0.9,0,1.7,0.3,2.3,0.9c0.2,0.1,0.4,0.1,0.6-0.1c0-0.1,0.1-0.1,0.1-0.2c-0.5-0.7-0.3-1.7,0.4-2.2
    c0.7-0.5,1.7-0.3,2.2,0.4c0.4,0.5,0.4,1.3,0,1.8c0,0.2,0.2,0.4,0.4,0.3c0.1,0,0.1,0,0.2-0.1c0.7-0.5,1.5-0.8,2.3-0.9
    c0.1,0,0.2,0,0.3,0c0.1,1-0.2,1.9-0.8,2.7c-0.1,0.2-0.1,0.4,0.1,0.6c0.1,0,0.1,0.1,0.2,0.1c0.7-0.5,1.7-0.3,2.2,0.4
    c0.5,0.7,0.3,1.7-0.4,2.2c-0.5,0.4-1.3,0.4-1.8,0c-0.2,0-0.4,0.2-0.3,0.4c0,0.1,0,0.1,0.1,0.2c0.6,0.8,0.9,1.7,0.8,2.7
    c-0.1,0-0.2,0-0.3,0c-0.9,0-1.7-0.3-2.3-0.9c-0.2-0.1-0.4-0.1-0.6,0.1c0,0.1-0.1,0.1-0.1,0.2c0.5,0.7,0.3,1.7-0.4,2.2
    c-0.7,0.5-1.7,0.3-2.2-0.4c-0.4-0.5-0.4-1.3,0-1.8c0-0.2-0.2-0.4-0.4-0.3c-0.1,0-0.1,0-0.2,0.1c-0.7,0.5-1.5,0.8-2.3,0.9
    C90.4,103,90.3,103,90.2,103L90.2,103z M113.8,121.6c0-0.2-0.2-0.3-0.3-0.3c-0.6,0.5-1.5,0.4-2-0.2c-0.2-0.2-0.3-0.5-0.3-0.7
    c-0.1-0.1-0.3-0.1-0.4,0c-0.1,0.8-0.8,1.4-1.6,1.3c-0.3,0-0.5-0.1-0.7-0.3c-0.2,0-0.3,0.2-0.3,0.3c0.5,0.6,0.4,1.5-0.2,2
    c-0.2,0.2-0.5,0.3-0.7,0.3c-0.1,0.1-0.1,0.3,0,0.4c0.8,0.1,1.4,0.8,1.3,1.6c0,0.3-0.1,0.5-0.3,0.7c0,0.2,0.2,0.3,0.3,0.3
    c0.6-0.5,1.5-0.4,2,0.2c0.2,0.2,0.3,0.5,0.3,0.7c0.1,0.1,0.3,0.1,0.4,0c0.4-0.3,0.7-0.7,0.9-1.2c0.3,0.2,0.7,0.2,1,0.2l0,0
    c0.1,0,0.3,0,0.4,0c0.2,0,0.3-0.2,0.3-0.3c-0.5-0.6-0.4-1.5,0.2-2c0.2-0.2,0.5-0.3,0.7-0.3c0.1-0.1,0.1-0.3,0-0.4
    c-0.8-0.1-1.4-0.8-1.3-1.6C113.5,122.1,113.6,121.8,113.8,121.6L113.8,121.6z M113.9,124.2c-0.3,0.3-0.6,0.4-1,0.5
    c-0.2,0-0.4,0.2-0.3,0.4c0,0.1,0,0.1,0.1,0.2c0.3,0,0.6,0.3,0.6,0.6c0,0.3-0.3,0.6-0.6,0.6c-0.3,0-0.5-0.3-0.6-0.6
    c-0.2-0.1-0.4-0.1-0.6,0.1c0,0.1-0.1,0.1-0.1,0.2c0.2,0.2,0.2,0.6-0.1,0.8c-0.2,0.2-0.6,0.2-0.8-0.1c-0.2-0.2-0.2-0.6,0-0.8
    c0-0.2-0.2-0.4-0.4-0.3c-0.1,0-0.1,0-0.2,0.1c0,0.3-0.3,0.6-0.6,0.6c-0.3,0-0.6-0.3-0.6-0.6c0-0.3,0.3-0.5,0.6-0.6
    c0.1-0.2,0.1-0.4-0.1-0.6c-0.1,0-0.1-0.1-0.2-0.1c-0.2,0.2-0.6,0.2-0.8-0.1c-0.2-0.2-0.2-0.6,0.1-0.8c0.2-0.2,0.6-0.2,0.8,0
    c0.2,0,0.4-0.2,0.3-0.4c0-0.1,0-0.1-0.1-0.2c-0.3,0-0.6-0.3-0.6-0.6c0-0.3,0.3-0.6,0.6-0.6c0.3,0,0.5,0.3,0.6,0.6
    c0.2,0.1,0.4,0.1,0.6-0.1c0-0.1,0.1-0.1,0.1-0.2c-0.2-0.2-0.2-0.6,0.1-0.8c0.2-0.2,0.6-0.2,0.8,0.1c0.2,0.2,0.2,0.6,0,0.8
    c0,0.2,0.2,0.4,0.4,0.3c0.1,0,0.1,0,0.2-0.1c0-0.3,0.3-0.6,0.6-0.6c0.3,0,0.6,0.3,0.6,0.6c0,0.3-0.3,0.5-0.6,0.6
    c-0.1,0.2-0.1,0.4,0.1,0.6c0.1,0,0.1,0.1,0.2,0.1C113.3,123.8,113.6,123.9,113.9,124.2L113.9,124.2z M95.8,65.4
    c0.8,1.5,2,2.7,3.4,3.6c1.7,1.1,3.8,1.7,5.8,1.6c1.7,0,3.3-0.3,4.9-0.8c-1.1,1.4-2.3,2.6-3.8,3.7c0,0-0.1,0-0.1,0
    c-3.7,0.6-6.9,0.1-9.2-1.4c-1-0.6-1.8-1.4-2.4-2.5c-0.1-0.2-0.3-0.3-0.5-0.2c-0.2,0.1-0.3,0.3-0.2,0.5c0.6,1.1,1.5,2.1,2.6,2.7
    c2,1.3,4.4,1.9,6.8,1.8c0.5,0,1,0,1.5-0.1c-3.6,2.2-7.9,2.6-11.9,1.2c-0.2-0.1-0.4,0-0.5,0.2c-0.1,0.2,0,0.4,0.2,0.5l0,0
    c1.6,0.6,3.2,0.9,4.9,0.9c2,0,4-0.4,5.9-1.3c-0.8,1.3-1,2.8-0.7,4.2c0.3,1.8,1.5,3.3,3.2,4.1c0.1,0.1,0.3,0,0.4-0.1
    c1.2-1.3,1.7-3.2,1.3-5c-0.3-1.7-1.3-3.1-2.8-3.9c0.8-0.5,1.6-1,2.4-1.6c-0.2,1.7,0.4,3.4,1.7,4.6c1,1.1,2.5,1.7,4,1.7l0,0
    c0.3,0,0.6,0,0.9-0.1c0.2,0,0.3-0.2,0.3-0.3c0.3-1.8-0.3-3.6-1.6-4.9c-1-1.1-2.5-1.7-4-1.7c-0.2,0-0.3,0-0.5,0
    c2.2-1.9,3.9-4.3,5.1-7c0.2,0.5,0.6,1,1.1,1.3c0.1,0.1,0.3,0.1,0.4,0c0.6-0.4,1.1-1.1,1.3-1.8c0.5,0.3,1.1,0.4,1.6,0.4l0,0
    c0.2,0,0.4,0,0.6-0.1c0.2,0,0.3-0.2,0.3-0.3c-0.8-0.9-0.7-2.2,0.2-3c0.4-0.3,0.8-0.5,1.3-0.5c0.1-0.1,0.1-0.3,0-0.4
    c-1.2-0.1-2.1-1.1-2-2.2c0-0.5,0.2-0.9,0.5-1.3c0-0.2-0.2-0.3-0.3-0.3c-0.2,0-0.4-0.1-0.6-0.1c-0.6,0-1.1,0.2-1.6,0.4
    c-0.2-0.7-0.7-1.4-1.3-1.8c-0.1-0.1-0.3-0.1-0.4,0c-0.6,0.4-1.1,1.1-1.3,1.8c-0.5-0.3-1.1-0.4-1.6-0.4c-0.2,0-0.4,0-0.6,0.1
    c-0.2,0-0.3,0.2-0.3,0.3c0.8,0.9,0.7,2.2-0.2,3c-0.4,0.3-0.8,0.5-1.3,0.5c-0.1,0.1-0.1,0.3,0,0.4c1.2,0.1,2.1,1.1,2,2.2
    c0,0.5-0.2,0.9-0.5,1.3c0,0.2,0.2,0.3,0.3,0.3c0.2,0,0.4,0.1,0.6,0.1c0.4,0,0.8-0.1,1.1-0.2c-0.4,1-1,1.9-1.6,2.8c0,0,0,0-0.1,0
    c-4.3,1.6-8,1.5-11-0.3c-1.3-0.8-2.4-2-3.1-3.3c-1.3-3.3,0.4-7,3.6-8.3c2.6-1,5.5,0.3,6.5,2.9c0,0,0,0,0,0l0,0
    c0.8,2-0.2,4.3-2.2,5.1l0,0c-1.6,0.6-3.4-0.2-4-1.8c-0.5-1.2,0.1-2.6,1.4-3.1c0.9-0.4,2,0.1,2.4,1c0,0,0,0,0,0
    c0.1,0.2,0.3,0.3,0.5,0.2c0.2-0.1,0.3-0.3,0.2-0.5c-0.5-1.4-2-2-3.4-1.5c0,0,0,0,0,0c-1.6,0.6-2.4,2.5-1.8,4.1c0.8,2,3,3,5,2.2
    c0,0,0,0,0,0l0,0c2.4-1,3.6-3.7,2.7-6.2c-1.2-3-4.6-4.5-7.6-3.3C96.2,57.5,94.3,61.7,95.8,65.4C95.8,65.4,95.8,65.4,95.8,65.4
    L95.8,65.4L95.8,65.4z M111.7,75.4c1.1,1,1.6,2.4,1.5,3.9c-0.2,0-0.3,0-0.5,0l0,0c-1.3,0-2.5-0.6-3.4-1.5c-1.1-1-1.6-2.4-1.5-3.9
    c0.2,0,0.3,0,0.5,0C109.6,73.9,110.8,74.5,111.7,75.4L111.7,75.4z M106.7,79.4c0.3,1.4,0,2.9-0.9,4.1c-2.4-1.4-3.3-4.5-1.9-6.9
    c0.1-0.2,0.2-0.4,0.3-0.5C105.5,76.8,106.4,78,106.7,79.4z M111,65.3c0-0.7,0.2-1.3,0.6-1.8c0.1-0.2,0.1-0.4-0.1-0.6
    c-0.1,0-0.1-0.1-0.2-0.1c-0.5,0.4-1.1,0.3-1.5-0.2c-0.4-0.5-0.3-1.1,0.2-1.5c0.4-0.3,0.9-0.3,1.3,0c0.2,0,0.4-0.2,0.3-0.4
    c0-0.1,0-0.1-0.1-0.2c-0.6-0.1-1-0.6-0.9-1.2c0.1-0.6,0.6-1,1.2-0.9c0.5,0.1,0.8,0.4,0.9,0.9c0.2,0.1,0.4,0.1,0.6-0.1
    c0-0.1,0.1-0.1,0.1-0.2c-0.4-0.5-0.3-1.1,0.2-1.5c0.5-0.4,1.1-0.3,1.5,0.2c0.3,0.4,0.3,0.9,0,1.3c0,0.2,0.2,0.4,0.4,0.3
    c0.1,0,0.1,0,0.2-0.1c0.1-0.6,0.6-1,1.2-0.9c0.6,0.1,1,0.6,0.9,1.2c-0.1,0.5-0.4,0.8-0.9,0.9c-0.1,0.2-0.1,0.4,0.1,0.6
    c0.1,0,0.1,0.1,0.2,0.1c0.5-0.4,1.1-0.3,1.5,0.2c0.4,0.5,0.3,1.1-0.2,1.5c-0.4,0.3-0.9,0.3-1.3,0c-0.2,0-0.4,0.2-0.3,0.4
    c0,0.1,0,0.1,0.1,0.2c0.4,0.5,0.6,1.2,0.6,1.8c-0.1,0-0.1,0-0.2,0l0,0c-0.6,0-1.2-0.2-1.7-0.6c-0.2-0.1-0.4-0.1-0.6,0.1
    c0,0.1-0.1,0.1-0.1,0.2c0.4,0.5,0.3,1.1-0.2,1.5c-0.5,0.4-1.1,0.3-1.5-0.2c-0.3-0.4-0.3-0.9,0-1.3c0,0,0,0,0,0c0,0,0,0,0,0
    c0,0,0,0,0-0.1l0,0c0,0,0,0,0,0l0,0c0,0,0,0,0-0.1l0,0c0,0,0,0,0,0l0,0c0,0,0,0-0.1,0h0c0,0,0,0,0,0l0,0H113c0,0,0,0,0,0l0,0l0,0
    l0,0l0,0l0,0l0,0C112.3,65.1,111.6,65.3,111,65.3L111,65.3z M127.7,74.6c-1.7,2.2-2.6,4.7-2.5,6.5c0,0,0,0,0,0l-5.4,2.3
    c1-0.8,1.8-1.8,2.6-2.8c2-2.6,3.1-5.6,3-7.7c0-0.2-0.2-0.4-0.4-0.4c0,0,0,0,0,0c0,0,0,0-0.1,0c-2.1,0.5-4.6,2.4-6.5,5
    c-2,2.6-3.1,5.5-3,7.6l0,0l0,0c0,0,0,0,0,0.1v0c0,0,0,0,0,0l-4.8,2.1c-0.2,0.1-0.3,0.3-0.2,0.5c0.1,0.2,0.3,0.3,0.5,0.2l0,0l4.8-2.1
    c2,1.8,4.5,2.9,7.1,3.3c1.1,0.2,2.2,0.3,3.3,0.3l0,0c1.7,0.1,3.4-0.3,4.9-1.1c0.2-0.1,0.3-0.3,0.1-0.5c0,0,0,0,0,0c0,0,0,0,0-0.1
    c-1.3-1.6-4.2-3-7.4-3.6c-1.1-0.2-2.2-0.3-3.3-0.3h-0.2l5.3-2.3c1.8,1.5,4,2.4,6.3,2.6c0.7,0.1,1.3,0.1,2,0.1l0,0
    c1.7,0.1,3.4-0.3,4.9-1.1c0.2-0.1,0.2-0.4,0.1-0.5c0,0,0,0,0,0c0,0,0,0,0,0c-1.2-1.3-3.6-2.3-6.4-2.7c-0.7-0.1-1.3-0.1-2-0.1
    c-0.2,0-0.5,0-0.7,0l3.2-1.4c0.6,0.2,1.2,0.3,1.8,0.3l0,0c1.1,0,2.3-0.3,3.3-0.8c1.7-0.7,3-2.1,3.6-3.9c0-0.2,0-0.4-0.2-0.5
    c-0.6-0.3-1.3-0.4-1.9-0.4c-1.1,0-2.3,0.3-3.3,0.8c-1.6,0.7-2.9,2-3.5,3.7l-3.4,1.5c0.7-0.7,1.4-1.4,2-2.1c1.7-2.2,2.6-4.7,2.5-6.5
    c0-0.2-0.2-0.4-0.4-0.4c0,0,0,0-0.1,0C131.4,70.8,129.3,72.4,127.7,74.6L127.7,74.6z M119,78.1c1.4-2,3.3-3.6,5.6-4.6
    c-0.3,2.4-1.3,4.7-2.8,6.6c-1.3,1.8-2.9,3.2-4.8,4.3l3.9-5.5c0.1-0.2,0.1-0.4-0.1-0.5c-0.2-0.1-0.4-0.1-0.5,0.1l-4,5.6
    C116.6,81.9,117.6,79.9,119,78.1L119,78.1z M120.3,84.9c1.1,0,2.1,0.1,3.1,0.3c2.4,0.3,4.7,1.4,6.6,3c-1.3,0.5-2.7,0.8-4.1,0.7l0,0
    c-1.1,0-2.1-0.1-3.1-0.3c-2.2-0.3-4.2-1.2-6-2.5l6,1.1c0,0,0,0,0.1,0c0.2,0,0.4-0.2,0.4-0.4c0-0.2-0.1-0.4-0.3-0.4l-5.7-1.1l0.6-0.3
    C118.6,85,119.5,84.9,120.3,84.9L120.3,84.9z M132.2,80.9c2,0.2,3.9,0.9,5.5,2.1c-1.3,0.5-2.6,0.8-4,0.8c-0.6,0-1.3,0-1.9-0.1
    c-1.7-0.2-3.4-0.7-4.9-1.6l5.4,0.7h0c0.2,0,0.4-0.2,0.4-0.4c0-0.2-0.1-0.4-0.3-0.4l-5.4-0.7c1-0.3,2.1-0.5,3.2-0.5
    C131,80.8,131.6,80.8,132.2,80.9L132.2,80.9z M136.4,75c0.9-0.5,1.9-0.7,2.9-0.7c0.4,0,0.9,0.1,1.3,0.2c-0.6,1.3-1.7,2.4-3,3
    c-0.9,0.5-1.9,0.7-2.9,0.7c-0.2,0-0.5,0-0.7-0.1l4-2c0.2-0.1,0.2-0.4,0.1-0.5c-0.1-0.2-0.3-0.2-0.5-0.2l-4,2
    C134.3,76.3,135.2,75.5,136.4,75L136.4,75z M132.8,71.3c-0.3,2-1.1,3.9-2.4,5.4c-0.9,1.2-2,2.3-3.2,3.1l2.7-4.1
    c0.1-0.2,0.1-0.4-0.1-0.5c-0.2-0.1-0.4-0.1-0.5,0.1c0,0,0,0,0,0l-3.3,5.1c0.3-2,1.1-3.8,2.4-5.3C129.4,73.5,131,72.2,132.8,71.3
    L132.8,71.3z M94.9,100c0.8,0,1.5-0.7,1.5-1.5c0-0.8-0.7-1.5-1.5-1.5c-0.8,0-1.5,0.7-1.5,1.5l0,0l0,0C93.4,99.4,94.1,100,94.9,100
    L94.9,100L94.9,100z M94.9,97.9c0.4,0,0.7,0.3,0.7,0.7c0,0.4-0.3,0.7-0.7,0.7c-0.4,0-0.7-0.3-0.7-0.7l0,0
    C94.2,98.2,94.5,97.9,94.9,97.9C94.9,97.9,94.9,97.9,94.9,97.9L94.9,97.9L94.9,97.9z M114.1,70l-1.4,2.2c-0.1,0.2-0.4,0.2-0.5,0.1
    c-0.2-0.1-0.2-0.4-0.1-0.5l1.4-2.2c0.1-0.2,0.4-0.2,0.5-0.1C114.2,69.6,114.2,69.8,114.1,70C114.1,70,114.1,70,114.1,70L114.1,70z
     M113.7,73.1l7.2-7.7c0.1-0.2,0.4-0.2,0.6,0c0.2,0.1,0.2,0.4,0,0.6c0,0,0,0,0,0l-7.2,7.7c-0.2,0.2-0.4,0.2-0.6,0
    C113.6,73.5,113.6,73.3,113.7,73.1L113.7,73.1z M116.2,76c-0.2,0-0.4-0.2-0.4-0.4c0-0.1,0-0.2,0.1-0.3c2.6-2.8,5.9-6.4,14-6.1
    c0.2,0,0.4,0.2,0.4,0.4s-0.2,0.4-0.4,0.4h0c-7.7-0.2-10.7,3-13.4,5.9C116.4,75.9,116.3,76,116.2,76L116.2,76z M123.9,66.7l1.9-3.9
    c0.1-0.2,0.4-0.2,0.5-0.1c0.2,0.1,0.2,0.3,0.2,0.5l-1.6,3.3l6.3-0.4c0.2,0,0.4,0.1,0.4,0.4c0,0.2-0.1,0.4-0.4,0.4h0l-7,0.5h0
    c-0.2,0-0.4-0.2-0.4-0.4C123.9,66.8,123.9,66.8,123.9,66.7L123.9,66.7z M107.7,88.3c0,0.2-0.2,0.4-0.4,0.4c-4.7-0.1-8.4-4.1-8.3-8.8
    c0-0.2,0.2-0.4,0.4-0.4s0.4,0.2,0.4,0.4l0,0c-0.1,4.3,3.3,7.9,7.5,8C107.5,87.9,107.7,88.1,107.7,88.3
    C107.7,88.3,107.7,88.3,107.7,88.3L107.7,88.3z M109.6,85.3c-0.2-0.1-0.3-0.3-0.3-0.5c0,0,0,0,0,0l1-2.9c0.1-0.2,0.3-0.3,0.5-0.2
    c0.2,0.1,0.3,0.3,0.2,0.5l-1,2.9C110,85.3,109.8,85.4,109.6,85.3C109.6,85.3,109.6,85.3,109.6,85.3L109.6,85.3z M72,105.4
    c0,0.1,0.1,0.2,0.1,0.3c1.5,1.2,4.2,1.9,7.2,1.9l0,0c0.2,0,0.5,0,0.7,0c3.3-0.1,6.3-1.1,7.8-2.5l0,0c0,0,0,0,0,0c0,0,0,0,0,0
    c0,0,0,0,0,0c0,0,0,0,0,0c0,0,0,0,0-0.1v0c0,0,0-0.1,0-0.1l0,0v0c0,0,0,0,0-0.1c0,0,0,0,0,0c0,0,0,0,0-0.1c0,0,0,0,0,0s0,0,0,0
    c0,0,0,0,0,0l0,0c0,0,0,0,0,0c-1.5-1.2-4.2-1.9-7.2-1.9c-0.2,0-0.5,0-0.7,0c-3.3,0.1-6.3,1.1-7.8,2.5C72,105.2,72,105.3,72,105.4
    L72,105.4z M79.9,103.4c0.2,0,0.5,0,0.7,0c1.9,0,3.9,0.3,5.7,1.1l-7.3,0.3c-0.2,0-0.4,0.2-0.4,0.4c0,0.2,0.2,0.4,0.4,0.4h0l7.3-0.3
    c-1.9,1-4.1,1.6-6.3,1.6c-0.2,0-0.5,0-0.7,0l0,0c-2.2,0.1-4.4-0.4-6.3-1.5C75.1,104.1,77.5,103.4,79.9,103.4L79.9,103.4z M81.7,99.8
    c0.7,0.2,1.4,0.3,2.1,0.3l0,0c0.7,0,1.3-0.1,1.9-0.4c0.2-0.1,0.3-0.3,0.2-0.5c0,0,0,0,0,0c0,0,0,0,0-0.1c-0.9-1-2.1-1.7-3.5-2
    c-0.7-0.2-1.4-0.3-2.1-0.3c-0.7,0-1.3,0.1-1.9,0.4c-0.2,0.1-0.3,0.3-0.2,0.5c0,0,0,0,0,0c0,0,0,0,0,0.1
    C79.1,98.8,80.3,99.5,81.7,99.8L81.7,99.8z M80.3,97.6c0.6,0,1.3,0.1,1.9,0.3c1,0.2,1.9,0.7,2.6,1.3c-0.3,0.1-0.7,0.1-1.1,0.1l0,0
    c-0.6,0-1.3-0.1-1.9-0.3c-1-0.2-1.9-0.7-2.6-1.3C79.6,97.7,79.9,97.6,80.3,97.6L80.3,97.6z M92.1,106.9c0.1,0.2,0,0.4-0.2,0.5
    c0,0,0,0,0,0l-3.1,1.2c-0.2,0.1-0.4,0-0.5-0.2c-0.1-0.2,0-0.4,0.2-0.5l0,0l0,0l3.1-1.2C91.8,106.6,92,106.7,92.1,106.9
    C92.1,106.9,92.1,106.9,92.1,106.9L92.1,106.9L92.1,106.9z M80.2,61.7c-0.2-0.2-0.2-0.4,0-0.6c0.2-0.2,0.4-0.2,0.6,0l1.6,1.6l0.2-2
    c0-0.2,0.2-0.4,0.4-0.4c0.2,0,0.4,0.2,0.4,0.4L83,63.6c0,0.2-0.2,0.4-0.4,0.4c-0.1,0-0.2,0-0.2-0.1L80.2,61.7z M97.7,90.2l2.6-2.4
    c0.2-0.2,0.4-0.1,0.6,0c0.2,0.2,0.1,0.4,0,0.6l0,0l-2.6,2.4c-0.2,0.2-0.4,0.1-0.6,0C97.5,90.6,97.5,90.3,97.7,90.2L97.7,90.2
    L97.7,90.2z M104.4,90.8l-2.6,1c-0.2,0.1-0.4,0-0.5-0.2c-0.1-0.2,0-0.4,0.2-0.5l0,0l2.6-1c0.2-0.1,0.4,0,0.5,0.2
    C104.7,90.5,104.6,90.7,104.4,90.8L104.4,90.8L104.4,90.8z M65,117.9c-1.9,0-3.7-1.1-4.5-2.8c-1.5-3.1-0.2-6.8,2.8-8.3
    c3.8-1.9,8.4-0.3,10.3,3.5c0.1,0.2,0,0.4-0.2,0.5c-0.2,0.1-0.4,0-0.5-0.2c-1.7-3.4-5.8-4.8-9.2-3.1c-2.7,1.3-3.8,4.6-2.5,7.3
    c1,2.1,3.6,3,5.7,2c1.6-0.8,2.3-2.8,1.5-4.5c-0.6-1.3-2.2-1.8-3.5-1.2c-1,0.5-1.4,1.7-0.9,2.7l0,0c0.4,0.8,1.3,1.1,2,0.7
    c0.2-0.1,0.4,0,0.5,0.1c0.1,0.2,0,0.4-0.1,0.5c0,0,0,0,0,0l0,0c-1.1,0.6-2.5,0.1-3.1-1.1c-0.7-1.4-0.1-3,1.3-3.7c0,0,0,0,0,0
    c1.7-0.8,3.7-0.1,4.5,1.5c1,2,0.2,4.5-1.9,5.5C66.5,117.7,65.7,117.9,65,117.9L65,117.9z M116.9,109.5c1,0,2-0.1,2.9-0.4
    c0.2-0.1,0.3-0.3,0.2-0.5c0,0,0,0,0,0c0,0,0,0,0-0.1c-1.2-2.3-4.3-4.7-8.1-6.2c-2.3-1-4.7-1.5-7.2-1.5c-1,0-2,0.1-2.9,0.4h0
    c0,0,0,0,0,0l0,0c0,0,0,0-0.1,0l0,0c0,0,0,0-0.1,0.1c0,0,0,0,0,0c0,0,0,0,0,0.1v0l0,0c0,0,0,0,0,0c0,0,0,0,0,0.1v0c0,0,0,0,0,0.1v0
    c0,0,0,0,0,0c0,0,0,0,0,0c0,0,0,0,0,0c0,0,0,0,0,0c1.2,2.3,4.3,4.7,8.1,6.2C112,108.9,114.4,109.4,116.9,109.5L116.9,109.5z
     M103,102.5l7,3c0.2,0.1,0.4,0,0.5-0.2c0.1-0.2,0-0.4-0.2-0.5l0,0l-7.1-3.1c0.5-0.1,1-0.1,1.6-0.1c2.4,0.1,4.7,0.6,6.9,1.5
    c3.4,1.4,6.2,3.4,7.4,5.4c-0.7,0.2-1.5,0.3-2.2,0.2c-2.4-0.1-4.7-0.6-6.9-1.5C107.3,106.2,104.9,104.6,103,102.5L103,102.5z
     M102.2,95.6C102.2,95.6,102.2,95.6,102.2,95.6C102.2,95.6,102.2,95.6,102.2,95.6C102.2,95.7,102.2,95.7,102.2,95.6
    c0,0.1-0.1,0.1-0.1,0.1c0,0,0,0,0,0c0,0,0,0,0,0.1v0c0,0,0,0.1,0,0.1l0,0c0,0,0,0,0,0.1l0,0c0,0,0,0,0,0l0,0c0,0,0,0,0.1,0.1l0,0
    c0,0,0,0,0.1,0h0c1,0.4,2.1,0.6,3.1,0.5l0,0c1.6,0,3.1-0.3,4.6-0.8c3-0.9,5.5-2.5,6.5-4.2c0.1-0.2,0.1-0.4-0.1-0.5c0,0,0,0-0.1,0
    c-1-0.4-2.1-0.6-3.1-0.5c-1.6,0-3.1,0.3-4.7,0.8C105.8,92.3,103.3,93.9,102.2,95.6L102.2,95.6z M113.4,91.4c0.8,0,1.6,0.1,2.4,0.3
    c-1.6,1.7-3.6,2.9-5.8,3.5c-1.4,0.5-2.9,0.7-4.4,0.7l0,0c-0.5,0-1.1,0-1.6-0.1l5.4-1.7c0.2-0.1,0.3-0.3,0.2-0.5
    c-0.1-0.2-0.3-0.3-0.4-0.2l-5.5,1.7c1.5-1.4,3.3-2.4,5.3-2.9C110.4,91.7,111.9,91.4,113.4,91.4L113.4,91.4z M85.4,87.2l2.6,5
    c0.1,0.2,0.1,0.4-0.1,0.5c-0.2,0.1-0.4,0.1-0.5-0.1c0,0,0,0,0,0c0,0,0,0,0,0l-2.6-5c-0.1-0.2,0-0.4,0.1-0.5
    C85,86.9,85.2,86.9,85.4,87.2L85.4,87.2L85.4,87.2L85.4,87.2z M89.7,90.6l-2.4-8.6c-0.1-0.2,0.1-0.4,0.3-0.5
    c0.2-0.1,0.4,0.1,0.5,0.3l0,0l0,0l2.4,8.6c0.1,0.2-0.1,0.4-0.3,0.5C90,90.9,89.7,90.8,89.7,90.6L89.7,90.6L89.7,90.6z M91.7,86.9
    c-0.2-0.1-0.2-0.4-0.1-0.5c0.1-0.2,0.4-0.2,0.5-0.1l0,0l2.6,1.9c0.2,0.1,0.2,0.4,0.1,0.5c-0.1,0.2-0.4,0.2-0.5,0.1l0,0L91.7,86.9z
     M101.1,105l2.4,1.9c0.2,0.1,0.2,0.4,0.1,0.6c-0.1,0.2-0.4,0.2-0.5,0.1l0,0l0,0l-2.4-1.9c-0.2-0.1-0.2-0.4-0.1-0.6
    C100.7,104.9,100.9,104.9,101.1,105L101.1,105z M124.4,102.5c0.9,0,1.8-0.5,2.2-1.4c0.4,1,1.5,1.4,2.5,1c1-0.4,1.4-1.5,1-2.5
    c-0.4-1-1.5-1.4-2.5-1c-0.4,0.2-0.6,0.4-0.9,0.7c-0.4-1.3-1.7-2-3-1.6c-0.6,0.2-1.2,0.6-1.5,1.2c-0.4-1.5-1.9-2.4-3.4-2.1
    c-1.1,0.3-2,1.2-2.1,2.4L104,98.2c-0.2,0-0.4,0.1-0.4,0.4c0,0.2,0.1,0.4,0.4,0.4l0,0l12.9,1.2c0.3,1.5,1.7,2.5,3.2,2.3
    c0.9-0.2,1.7-0.8,2.1-1.6C122.4,101.8,123.3,102.5,124.4,102.5L124.4,102.5z M128.3,99.3c0.6,0,1.1,0.5,1.1,1.1
    c0,0.6-0.5,1.1-1.1,1.1c-0.6,0-1.1-0.5-1.1-1.1l0,0C127.2,99.8,127.7,99.3,128.3,99.3L128.3,99.3L128.3,99.3z M124.4,98.5
    c0.9,0,1.6,0.7,1.6,1.6c0,0.9-0.7,1.6-1.6,1.6c-0.9,0-1.6-0.7-1.6-1.6l0,0C122.8,99.2,123.5,98.5,124.4,98.5L124.4,98.5z
     M119.5,101.7c-0.9,0-1.7-0.6-1.9-1.5c0.2-0.1,0.2-0.4,0.1-0.5c0-0.1-0.1-0.1-0.2-0.1c0.1-1.1,1.1-1.9,2.2-1.8
    c1.1,0.1,1.9,1.1,1.8,2.2C121.4,100.9,120.6,101.7,119.5,101.7L119.5,101.7z M113.8,96.7l3.1-1.5c0.2-0.1,0.4,0,0.5,0.2
    c0.1,0.2,0,0.4-0.2,0.5l0,0l-3.1,1.5c-0.2,0.1-0.4,0-0.5-0.2C113.6,97.1,113.7,96.8,113.8,96.7L113.8,96.7z M131.9,92.6
    c2.3,0.8,4.6,1.3,7,1.5c2.2,0.2,4.3-1.2,5-3.3c0.3-0.9,0.3-1.9-0.1-2.8c-0.4-0.8-1.1-1.5-1.9-1.8c-1.2-0.4-2.5,0.2-2.9,1.4
    c-0.1,0.4-0.1,0.8,0,1.1c0.2,0.3,0.4,0.6,0.8,0.7c0.4,0.2,0.9-0.1,1.1-0.5c0.1-0.2,0.3-0.3,0.5-0.2c0.2,0.1,0.3,0.3,0.2,0.5l0,0l0,0
    c-0.3,0.9-1.2,1.3-2.1,1c-0.5-0.2-1-0.6-1.2-1.1c-0.3-0.5-0.3-1.2-0.1-1.7c0.6-1.6,2.3-2.4,3.9-1.9c1,0.4,1.9,1.2,2.3,2.2
    c0.5,1.1,0.5,2.3,0.1,3.4c-0.8,2.4-3.1,4-5.7,3.9h-0.1c-2.5-0.2-4.9-0.7-7.2-1.5c-0.7-0.2-1.3-0.4-1.9-0.6c-0.2-0.1-0.3-0.3-0.3-0.5
    c0.1-0.2,0.3-0.3,0.5-0.3l0,0l0,0C130.5,92.2,131.2,92.4,131.9,92.6L131.9,92.6z M134.3,87.9l-0.2,2l1.8-0.7c0.2-0.1,0.4,0,0.5,0.2
    c0.1,0.2,0,0.4-0.2,0.5l0,0l0,0l-2.4,1c-0.2,0.1-0.4,0-0.5-0.2c0-0.1,0-0.1,0-0.2l0.2-2.6c0-0.2,0.2-0.4,0.4-0.4
    C134.2,87.4,134.3,87.6,134.3,87.9L134.3,87.9L134.3,87.9z M135.4,108.6c-0.2-0.1-0.2-0.4-0.1-0.6c0,0,0,0,0,0l0,0l1.4-1.9
    c0.1-0.2,0.4-0.2,0.5-0.1c0.2,0.1,0.2,0.4,0.1,0.5l0,0c0,0,0,0,0,0.1l-1.4,1.9C135.8,108.6,135.5,108.7,135.4,108.6L135.4,108.6
    L135.4,108.6z M127.6,120c0.2,0.1,0.3,0.3,0.2,0.5c-0.1,0.2-0.3,0.3-0.5,0.2l0,0c-1.7-0.9-3.8-1.3-5.7-0.9c-0.2,0-0.4-0.1-0.5-0.3
    c0-0.2,0.1-0.4,0.3-0.5C123.5,118.5,125.7,118.9,127.6,120L127.6,120z M99.6,112.9c0,1.1,0.9,2,2,2c1.1,0,2-0.9,2-2c0-1.1-0.9-2-2-2
    c0,0,0,0,0,0c-0.1,0-0.2,0-0.2,0l-2.5-5.5c-0.1-0.2-0.3-0.3-0.5-0.2c-0.2,0.1-0.3,0.3-0.2,0.5l2.5,5.5
    C100,111.6,99.6,112.2,99.6,112.9L99.6,112.9z M101.5,111.7c0.6,0,1.2,0.5,1.2,1.2c0,0.6-0.5,1.2-1.2,1.2c-0.6,0-1.2-0.5-1.2-1.2
    C100.4,112.3,100.9,111.7,101.5,111.7L101.5,111.7z M120.9,104.1l1.4,2.2c0.1,0.2,0,0.4-0.1,0.5c-0.2,0.1-0.4,0.1-0.5-0.1l0,0
    l-1.4-2.2c-0.1-0.2-0.1-0.4,0.1-0.5C120.5,103.9,120.8,103.9,120.9,104.1L120.9,104.1z M114.4,111.8l-5.1,7
    c-0.1,0.2-0.4,0.2-0.5,0.1c-0.2-0.1-0.2-0.4-0.1-0.6l0,0l5.1-7c0.1-0.2,0.4-0.2,0.5-0.1C114.5,111.4,114.5,111.7,114.4,111.8
    L114.4,111.8z M107.9,143.1c0,0.2-0.2,0.4-0.4,0.4c-6.4,0-11.8-5.2-12.5-11.7l-2.3,4.3c0.1,1,0.8,3.8,4.9,6.6
    c0.2,0.1,0.2,0.4,0.1,0.5c-0.1,0.2-0.4,0.2-0.5,0.1l0,0l0,0c-3.5-2.3-4.7-4.7-5.1-6.2l-2.4,4.4c-0.1,0.2-0.3,0.3-0.5,0.2
    c-0.2-0.1-0.3-0.3-0.2-0.5c0,0,0,0,0,0l0.6-1.1l-2.1,0.9c-0.2,0.1-0.4,0-0.5-0.2c-0.1-0.2,0-0.4,0.2-0.5h0l2.8-1.2
    c0.1,0,0.1,0,0.2,0l1.5-2.8L89,137c-0.2,0.1-0.4-0.1-0.5-0.3c-0.1-0.2,0.1-0.4,0.3-0.5l0,0l0,0l3.3-0.9h0l2.8-5.2
    c0.1-0.2,0.3-0.3,0.5-0.2c0.1,0.1,0.2,0.2,0.2,0.3c0,6.7,5.4,12.3,11.8,12.3C107.8,142.7,107.9,142.9,107.9,143.1L107.9,143.1
    L107.9,143.1z M107.1,114.5c0.6-2.8-1.8-5.4-1.9-5.5c-0.1-0.2-0.4-0.2-0.6,0c-0.2,0.1-0.2,0.4,0,0.6c0,0,2.2,2.4,1.7,4.8
    c-0.3,1.4-1.5,2.6-3.5,3.4c-0.2,0.1-0.3,0.3-0.2,0.5c0.1,0.2,0.3,0.3,0.5,0.2c0.5-0.2,1-0.5,1.5-0.8L104,121
    c-1.1,1.3-1.7,2.8-1.9,4.5c-0.3,1.7-0.1,3.4,0.7,4.9c0.1,0.1,0.2,0.2,0.3,0.2c0,0,0,0,0.1,0c0.1,0,0.2,0,0.3-0.1
    c1.1-1.3,1.8-2.9,2-4.5c0.3-1.6,0.1-3.3-0.6-4.8l0.8-4.2C106.3,116.3,106.9,115.4,107.1,114.5L107.1,114.5z M104.6,125.8
    c-0.1,1.3-0.6,2.6-1.4,3.7c-0.8-2.6-0.4-5.4,1.1-7.6C104.7,123.1,104.8,124.5,104.6,125.8L104.6,125.8z M108.4,110.8
    c-0.1-0.2,0-0.4,0.2-0.5c0.2-0.1,0.4,0,0.5,0.2l1,1.9c0.1,0.2,0,0.4-0.2,0.5c-0.2,0.1-0.4,0-0.5-0.2L108.4,110.8z M63,83.9
    c1.6-0.7,3.4-1.1,5.2-1.2c-1-1.3-1.8-2.7-2.4-4.3c-0.1-0.2,0.1-0.4,0.3-0.5c0.2-0.1,0.4,0,0.5,0.2c0,0,1.4,3.5,2.8,4.6
    c0.2,0.1,0.2,0.4,0.1,0.6c-0.1,0.1-0.2,0.2-0.3,0.2c0,0-4.1,0.2-5.7,1.1c-0.2,0.1-0.4,0-0.5-0.1C62.7,84.3,62.7,84.1,63,83.9
    L63,83.9L63,83.9z M61.6,79.8c-0.1-0.2,0-0.4,0.1-0.5c0.2-0.1,0.4-0.1,0.5,0.1c0,0,0.9,1.4,2,1.4c0.2,0,0.4,0.2,0.4,0.4
    c0,0.2-0.2,0.4-0.4,0.4l0,0C63.2,81.4,62.2,80.7,61.6,79.8L61.6,79.8z M93.6,58.6c-0.3-1.1,0.1-2.3,0.9-3.1c0.2-0.1,0.4-0.1,0.5,0.1
    c0.1,0.2,0.1,0.4,0,0.5c-0.6,0.6-0.9,1.5-0.7,2.4c0,0.2-0.1,0.4-0.3,0.5c0,0,0,0,0,0l0,0C93.9,58.9,93.7,58.8,93.6,58.6
    C93.6,58.6,93.6,58.6,93.6,58.6L93.6,58.6z M122.9,63.7c0.7,0,1.3-0.6,1.3-1.3s-0.6-1.3-1.3-1.3s-1.3,0.6-1.3,1.3l0,0l0,0
    C121.6,63.1,122.2,63.7,122.9,63.7L122.9,63.7z M122.9,61.8c0.3,0,0.6,0.2,0.6,0.6s-0.2,0.6-0.6,0.6c-0.3,0-0.6-0.2-0.6-0.6
    S122.6,61.8,122.9,61.8L122.9,61.8z M113,62.5l0.6-0.6l-0.6-0.6c-0.2-0.2-0.2-0.4,0-0.6c0.2-0.2,0.4-0.2,0.6,0l0,0l0.6,0.6l0.6-0.6
    c0.2-0.2,0.4-0.2,0.6,0c0.2,0.2,0.2,0.4,0,0.6l-0.6,0.6l0.6,0.6c0.2,0.2,0.2,0.4,0,0.6c-0.2,0.2-0.4,0.2-0.6,0l0,0l-0.6-0.6
    l-0.6,0.6c-0.2,0.2-0.4,0.2-0.6,0C112.9,62.9,112.9,62.7,113,62.5L113,62.5z M59.6,101.9c0.7,0,1.3-0.1,2-0.3c1.8-0.4,3.3-1.4,4.2-3
    c1.2-0.8,2.5-1.4,3.8-1.9c0.1,0,0.2,0,0.3,0c-1,0.7-1.8,1.6-2.3,2.6c-0.8,1.4-0.9,3.1-0.3,4.6c0.1,0.2,0.3,0.3,0.5,0.2
    c3.1-1.2,4.7-4.6,3.7-7.7c-0.1,0-0.2-0.1-0.1-0.2c0,0,0-0.1,0-0.1c4.2-1.4,8.5-2.3,12.9-2.8c0.4,0.6,0.8,1.3,1.1,1.9
    c0.1,0.2,0.3,0.3,0.5,0.2c0.2-0.1,0.3-0.3,0.2-0.5l0,0c-1-2.1-2.4-3.9-4.2-5.3l1.9-5.8c0.1-0.2,0-0.4-0.2-0.5
    c-0.2-0.1-0.4,0-0.5,0.3v0l-1.8,5.6c-1.5-1-3.1-1.8-4.8-2.2c-4.6-1.2-9.4-0.8-13.7,1.1c-0.8-1.2-2.3-1.5-3.5-0.8
    c-0.1,0.1-0.3,0.2-0.4,0.3c0,0,0,0-0.1,0c0,0,0,0,0,0c-1,1-0.9,2.6,0.1,3.6c1,1,2.6,0.9,3.6-0.1c0.6-0.6,0.9-1.6,0.6-2.4
    c3.4-1.5,7.2-2.1,10.9-1.6l-5.5,2c-0.2,0.1-0.3,0.3-0.3,0.5c0.1,0.2,0.3,0.3,0.5,0.3l0,0l6.5-2.4c0.1,0,0.1-0.1,0.2-0.1
    c1.8,0.4,3.5,1.1,5.1,2.1l-7.8,1.8c-0.2,0-0.3,0.3-0.3,0.5c0,0.2,0.2,0.3,0.4,0.3c0,0,0.1,0,0.1,0l8.5-2c0.9,0.7,1.8,1.5,2.5,2.4
    c-4.3,0.5-8.5,1.4-12.6,2.8c-1-2.4-3.2-4-5.8-4.2c-0.3,0-0.6,0-0.9,0.1c-0.2,0-0.3,0.2-0.3,0.4c0.2,1.6,1.1,3,2.5,3.9
    c0.5,0.4,1.1,0.7,1.7,0.9c-1,0.4-1.9,0.9-2.8,1.5c-0.9-0.5-1.9-0.8-3-0.8c-0.7,0-1.3,0.1-2,0.3c-1.8,0.4-3.3,1.5-4.3,3.1
    c-0.1,0.2,0,0.4,0.1,0.5C57.4,101.7,58.5,102,59.6,101.9L59.6,101.9z M70.4,100.8c-0.5,1.1-1.4,2.1-2.5,2.6c-0.5-2.5,0.7-5,3-6.2
    C71.2,98.5,71,99.7,70.4,100.8L70.4,100.8z M62.2,89.5c0,0.3-0.1,0.6-0.3,0.9L59.6,88c0.8-0.5,1.9-0.3,2.4,0.6
    C62.1,88.8,62.2,89.1,62.2,89.5L62.2,89.5z M58.7,89.5c0-0.3,0.1-0.7,0.3-0.9l2.4,2.4c-0.8,0.5-1.9,0.3-2.4-0.5
    C58.8,90.1,58.7,89.8,58.7,89.5L58.7,89.5z M67,95c-1-0.7-1.8-1.7-2.1-2.9c0.1,0,0.3,0,0.4,0c2.3,0.1,4.2,1.6,5.1,3.7
    c-0.3,0.1-0.6,0.2-0.9,0.3C68.6,95.8,67.8,95.5,67,95L67,95z M60.7,98.3c0.6-0.1,1.2-0.2,1.8-0.2c0.9,0,1.7,0.2,2.5,0.6
    c-0.9,1.2-2.1,2-3.6,2.3c-0.6,0.1-1.2,0.2-1.8,0.2l0,0c-0.9,0-1.7-0.2-2.5-0.6C58,99.4,59.3,98.6,60.7,98.3L60.7,98.3z M63.8,103.9
    c-2,0.4-3.8,1.3-5.3,2.7c-0.2,0.1-0.4,0.1-0.6,0c-0.1-0.2-0.1-0.4,0-0.6l0,0c1.6-1.5,3.6-2.5,5.7-2.9c0.2,0,0.4,0.1,0.4,0.4
    C64.1,103.7,64,103.9,63.8,103.9L63.8,103.9z M57.3,93.4c0-0.2,0.1-0.4,0.3-0.5c0.2,0,0.4,0.1,0.4,0.3c0,0.1,0.7,1,5.2,1.5
    c0.2,0,0.4,0.2,0.4,0.4c0,0.2-0.2,0.4-0.4,0.4h0C57.9,94.9,57.3,93.8,57.3,93.4L57.3,93.4z M78.3,100c0.2,0,0.4,0.2,0.3,0.4
    c0,0.2-0.2,0.3-0.4,0.3h0c-2-0.1-3.8-1.3-4.8-3c-0.1-0.2,0-0.4,0.2-0.5c0.2-0.1,0.4,0,0.5,0.2C75,99,76.6,99.9,78.3,100L78.3,100z
     M110.1,135c-0.6,2.5-3.2,4.1-5.7,3.4l0,0c-3.5-0.9-6.4-6.1-5.5-9.8c0.1-0.2,0.3-0.3,0.5-0.3c0.2,0.1,0.3,0.3,0.3,0.5
    c-0.8,3.3,1.8,8.1,4.9,8.9c2.1,0.5,4.2-0.8,4.7-2.9c0.3-1.4-0.5-2.8-1.9-3.1c-0.9-0.2-1.8,0.3-2,1.2c-0.1,0.5,0.2,1.1,0.7,1.2
    c0,0,0,0,0,0c0.2,0.1,0.3,0.3,0.3,0.5c-0.1,0.2-0.3,0.3-0.5,0.3c-1-0.2-1.5-1.2-1.3-2.2c0.3-1.3,1.6-2.1,2.9-1.8
    C109.5,131.4,110.6,133.2,110.1,135L110.1,135L110.1,135z M115,128.6c0.1,0.2,0.1,0.4-0.1,0.5h0l-2.4,1.6c-0.2,0.1-0.4,0.1-0.6-0.1
    c-0.1-0.2-0.1-0.4,0.1-0.6c0,0,0,0,0,0l0,0l2.4-1.6C114.6,128.4,114.9,128.4,115,128.6L115,128.6z M114.7,140.7
    c0.1,0.2,0.1,0.4-0.1,0.5c-0.2,0.1-0.4,0.1-0.5-0.1c-2.5-3.3-1.1-7.8-1-8c0.1-0.2,0.3-0.3,0.5-0.3c0.2,0.1,0.3,0.3,0.3,0.5
    C113.8,133.5,112.4,137.8,114.7,140.7L114.7,140.7z M112.4,142.1c0.1,0.2,0.1,0.4-0.1,0.6c-0.2,0.1-0.4,0.1-0.6-0.1l-2.6-3.2
    c-0.1-0.2-0.1-0.4,0.1-0.6c0.2-0.1,0.4-0.1,0.6,0.1L112.4,142.1z M145.4,101.8c-0.5,0-1,0.3-1.3,0.7l-6.9-1.6c-0.7-1-1.6-2-2.5-2.8
    l9.3,0.4c0.2,0.8,1,1.3,1.8,1.1c0.8-0.2,1.3-1,1.1-1.8c-0.2-0.8-1-1.3-1.8-1.1c-0.5,0.1-0.9,0.5-1.1,1L134,97.3h0
    c-3.8-3.3-8.7-4.9-13.6-4.7c-0.2,0-0.4,0.2-0.4,0.4c0,0.2,0.2,0.4,0.4,0.4l0,0c0.6,0,1.1,0,1.7,0l1.5,2.3c0.1,0.2,0.4,0.2,0.5,0.1
    s0.2-0.4,0.1-0.5l-1.2-1.9c5.5,0.5,10.5,3.4,13.8,8c0,0.1,0.1,0.1,0.1,0.2c2.2,3.1,3.5,6.6,3.9,10.4c-1.3,0.4-2,1.7-1.6,2.9
    c0.4,1.3,1.7,2,2.9,1.6c0.4-0.1,0.7-0.3,1-0.6c0.2,0,0.3-0.2,0.3-0.4c0.7-1.1,0.5-2.5-0.6-3.3c-0.4-0.2-0.8-0.4-1.2-0.4
    c-0.2-1.9-0.7-3.8-1.3-5.6l2.7,1.7c-0.2,0.9,0.5,1.8,1.4,2c0.9,0.2,1.8-0.5,2-1.4c0.2-0.9-0.5-1.8-1.4-2c-0.6-0.1-1.3,0.1-1.7,0.7
    l-3.5-2.2c-0.5-1.1-1.1-2.2-1.7-3.2l6,1.4v0c0,0.8,0.7,1.5,1.5,1.5s1.5-0.7,1.5-1.5S146.2,101.8,145.4,101.8L145.4,101.8
    L145.4,101.8L145.4,101.8z M145.6,97.5c0.4,0,0.7,0.3,0.7,0.7s-0.3,0.7-0.7,0.7c-0.4,0-0.7-0.3-0.7-0.7
    C144.9,97.8,145.2,97.5,145.6,97.5C145.6,97.5,145.6,97.5,145.6,97.5z M144.6,107.4c0.5,0,0.9,0.4,0.9,0.9c0,0.5-0.4,0.9-0.9,0.9
    c-0.5,0-0.9-0.4-0.9-0.9S144.1,107.4,144.6,107.4L144.6,107.4z M139.8,114.2c0-0.3,0.1-0.7,0.3-0.9l2.2,2.2
    c-0.7,0.5-1.7,0.4-2.2-0.3C139.9,114.9,139.8,114.6,139.8,114.2L139.8,114.2z M143,114.2c0,0.2,0,0.4-0.1,0.6l-2.1-2.1
    c0.1-0.1,0.3-0.1,0.4-0.1h0.1c0,0,0,0,0.1,0c0,0,0.1,0,0.1,0C142.3,112.7,143,113.4,143,114.2L143,114.2z M145.4,104
    c-0.4,0-0.7-0.3-0.7-0.7c0-0.4,0.3-0.7,0.7-0.7c0.4,0,0.7,0.3,0.7,0.7C146.1,103.7,145.8,104,145.4,104
    C145.4,104,145.4,104,145.4,104z M96.2,126.3c0.1,0.2,0,0.4-0.2,0.5c-2.5,1-4.5,2.9-5.7,5.3c-0.1,0.2-0.3,0.3-0.5,0.2
    c-0.2-0.1-0.3-0.3-0.2-0.5l0,0l0,0c1.3-2.6,3.4-4.6,6.1-5.7C95.8,126,96.1,126.1,96.2,126.3L96.2,126.3z M87,129.7
    c1.7-1.3,3.3-2.8,4.6-4.5c1.3-1.7,2.4-3.6,3.3-5.5l2.9,5.1c0.1,0.2,0.3,0.3,0.5,0.2c0.2-0.1,0.3-0.3,0.2-0.5l0,0l0,0l-3.2-5.7
    c0.5-1.4,1-2.9,1.3-4.3l3.4,5.6c0.1,0.2,0.4,0.2,0.5,0.1c0.2-0.1,0.2-0.3,0.1-0.5l-3.9-6.4c0.2-1.5,0.4-2.9,0.4-4.4c0,0,0,0,0,0
    c0-0.2-0.1-0.4-0.3-0.4c-0.1,0-0.2,0-0.2,0l-7.4,3.5c-1.7-1-3.6-1.5-5.6-1.5c-2,0-4,0.5-5.8,1.3c-2.1,1-3.9,2.5-5.2,4.4
    c-0.1,0.1-0.1,0.1-0.2,0.2c-0.9,1.3-1.5,2.9-1.7,4.5v0c0,0,0,0,0,0.1v0c0,0,0,0,0,0.1v0c0,0,0,0,0,0.1l0,0c0,0,0,0,0,0
    c0,0.1,0.1,0.1,0.1,0.1l0,0c1.7,1,3.7,1.5,5.7,1.5l0,0c2,0,4-0.5,5.8-1.3c0.8-0.4,1.6-0.9,2.3-1.4c0.1,0,0.1-0.1,0.2-0.1
    c2.4-1.7,4-4.3,4.6-7.2l6.9-3.3c0,1.1-0.1,2.2-0.3,3.3h0l-4.8,2.2c-0.2,0.1-0.3,0.3-0.2,0.5s0.3,0.3,0.5,0.2l4.3-2
    c-0.3,1.5-0.7,3.1-1.3,4.5h-4.2c-0.2,0-0.4,0.2-0.4,0.4c0,0.2,0.2,0.4,0.4,0.4h3.9c-0.6,1.5-1.4,2.9-2.2,4.2l-3.6-1.7
    c-0.2-0.1-0.4,0-0.5,0.2c-0.1,0.2,0,0.4,0.2,0.5l3.4,1.6c-0.5,0.7-1.1,1.4-1.7,2.1c-0.9-1-2-1.8-3.3-2.2c-0.9-0.4-1.9-0.5-2.9-0.6
    c-0.5,0-0.9,0.1-1.4,0.2c-0.2,0.1-0.3,0.3-0.2,0.5c0,0,0,0,0,0.1c0.8,1.2,2.1,2.1,3.4,2.5c0.9,0.4,1.9,0.5,2.9,0.6
    c0.1,0,0.3,0,0.4,0c-1.1,1-2.2,2-3.4,2.8c0,0,0,0,0-0.1v0c0,0,0,0,0-0.1c0,0,0,0,0,0c0,0,0,0,0,0c0,0,0,0,0,0
    c-0.8-1.5-2.8-2.9-5.3-3.9c-1.4-0.5-2.9-0.8-4.4-0.9c-0.7,0-1.4,0.1-2.1,0.3c-0.2,0.1-0.3,0.3-0.2,0.5c0,0,0,0,0,0.1
    c0.8,1.5,2.8,2.9,5.3,3.9c1.4,0.5,2.9,0.8,4.4,0.9l0,0c0.5,0,1.1-0.1,1.6-0.2c-0.9,0.5-1.8,1-2.7,1.4c-0.8-0.2-1.6-0.3-2.3-0.3
    c-1.2,0-2.4,0.2-3.5,0.5c-2.5,0.7-4.7,2-5.6,3.3c-0.1,0.2-0.1,0.4,0.1,0.5c0,0,0,0,0.1,0c1,0.4,2,0.6,3,0.6l0,0
    c1.2,0,2.4-0.2,3.5-0.5c2.5-0.7,4.7-2,5.6-3.3c0.1-0.1,0.1-0.2,0.1-0.3c0,0,0,0,0,0c0.6-0.3,1.3-0.6,1.9-1c-0.6,0.9-1.1,1.9-1.5,3
    c-0.7,1.8-0.8,3.7-0.3,5.6c0.1,0.2,0.3,0.3,0.5,0.2h0c0,0,0,0,0.1,0C86.6,137.3,87.9,133.4,87,129.7L87,129.7z M88.3,112.3l-2.1,1
    l-4-2c0.5-0.1,0.9-0.1,1.4-0.1C85.2,111.1,86.8,111.5,88.3,112.3L88.3,112.3z M78.1,112.4c0.9-0.4,1.8-0.8,2.8-1c0,0,0.1,0,0.1,0.1
    l4.3,2.1l-4.1,1.9l-4.3-2.5C77.3,112.8,77.7,112.6,78.1,112.4L78.1,112.4z M76.2,113.6l4.2,2.4l-3.8,1.8l-3.1-1.6
    C74.2,115.2,75.1,114.3,76.2,113.6L76.2,113.6z M71.9,120.8l4.1-1.9l-1.4,2.8C73.7,121.6,72.8,121.3,71.9,120.8L71.9,120.8z
     M72.9,116.9l2.7,1.3l-4,1.9C71.8,119,72.3,117.9,72.9,116.9L72.9,116.9z M76.5,121.9c-0.4,0-0.7,0-1.1-0.1l1.6-3.3c0,0,0-0.1,0-0.1
    l3.8-1.8l-1.5,4.9C78.5,121.8,77.5,121.9,76.5,121.9L76.5,121.9z M82,120.6c-0.6,0.3-1.1,0.5-1.7,0.7l1.5-5c0,0,0-0.1,0-0.1l3.7-1.7
    l-1.3,4.9C83.5,119.8,82.8,120.2,82,120.6L82,120.6z M85.2,118.4l1.2-4.4l2.1-1C88,115.1,86.8,117,85.2,118.4L85.2,118.4z M86,125.6
    c-1-0.4-2-1-2.7-1.7c0.2,0,0.4,0,0.6,0c0.9,0,1.8,0.2,2.6,0.5c1,0.4,2,1,2.7,1.7c-0.2,0-0.4,0-0.6,0C87.7,126.1,86.8,126,86,125.6
    L86,125.6z M83.2,129.6c-1.4,0-2.8-0.3-4.1-0.8c-1.8-0.6-3.4-1.7-4.6-3.1c0.4-0.1,0.9-0.1,1.3-0.1c1.4,0,2.8,0.3,4.1,0.8
    c1.5,0.5,2.9,1.4,4.1,2.5l-4.4-1.6c-0.2-0.1-0.4,0-0.5,0.2s0,0.4,0.2,0.5l4.4,1.6C83.5,129.6,83.3,129.6,83.2,129.6L83.2,129.6z
     M77.1,135c-1.1,0.3-2.2,0.5-3.3,0.5c-0.7,0-1.5-0.1-2.2-0.3c1.4-1.3,3-2.2,4.9-2.6c1.1-0.3,2.2-0.5,3.3-0.5c0.3,0,0.7,0,1,0.1
    c-0.9,0.3-1.9,0.6-2.9,0.8c-0.2,0-0.4,0.2-0.3,0.4c0,0.2,0.2,0.4,0.4,0.3l0,0c1.3-0.3,2.5-0.6,3.8-1.1
    C80.4,133.8,78.8,134.6,77.1,135L77.1,135z M86,135c-0.4,1.5-1.3,2.8-2.4,3.9c-0.3-1.5-0.1-3.1,0.4-4.5c0.4-1.1,0.9-2.2,1.7-3.2
    l-0.9,2.6c-0.1,0.2,0,0.4,0.2,0.5c0.2,0.1,0.4,0,0.5-0.2l0,0c0,0,0,0,0,0l1-2.8C86.6,132.5,86.4,133.8,86,135L86,135z M69.2,123.2
    c0.6,2.4,2.2,4.4,4.3,5.6c0.2,0.1,0.3,0.3,0.2,0.5c-0.1,0.2-0.3,0.3-0.5,0.2l0,0c-2.4-1.3-4.1-3.5-4.7-6.2c0-0.2,0.1-0.4,0.3-0.5
    C69,122.9,69.2,123,69.2,123.2L69.2,123.2L69.2,123.2z M70.6,131.8c-0.1,0-0.2,0-0.3-0.1c-1.6-1.3-2.9-2.8-4-4.4
    c-0.1-0.2,0-0.4,0.2-0.5c0.2-0.1,0.4,0,0.5,0.1c1.1,1.6,2.4,3,3.8,4.2c0.2,0.1,0.2,0.4,0,0.6C70.8,131.7,70.7,131.8,70.6,131.8
    L70.6,131.8z M67.3,121.3c-1.7,0-3.3-0.3-4.9-0.8c-0.2-0.1-0.3-0.3-0.2-0.5c0.1-0.2,0.3-0.3,0.5-0.2c1.5,0.5,3,0.8,4.6,0.8
    c0.2,0,0.4,0.2,0.4,0.4C67.7,121.1,67.5,121.3,67.3,121.3L67.3,121.3L67.3,121.3z M66.6,124.4l-2.4,0.6c-0.2,0-0.4-0.1-0.5-0.3
    c0-0.2,0.1-0.4,0.3-0.4l2.4-0.6c0.2,0,0.4,0.1,0.5,0.3C66.9,124.1,66.8,124.3,66.6,124.4L66.6,124.4z M140.1,80.7l2.8-1.4
    c0.2-0.1,0.4,0,0.5,0.2c0.1,0.2,0,0.4-0.2,0.5l-2.7,1.4c-0.2,0.1-0.4,0-0.5-0.2C139.9,81,140,80.8,140.1,80.7L140.1,80.7z
     M141.7,82.4l3.1-0.2c0.2,0,0.4,0.2,0.4,0.4c0,0.2-0.2,0.4-0.4,0.4l-3.1,0.2h0c-0.2,0-0.4-0.2-0.4-0.4
    C141.3,82.6,141.4,82.4,141.7,82.4L141.7,82.4z M136.8,71.5c0.9,0,1.7-0.8,1.7-1.7c0-1-0.8-1.7-1.7-1.7c-0.9,0-1.7,0.8-1.7,1.7
    C135.1,70.7,135.9,71.5,136.8,71.5C136.8,71.5,136.8,71.5,136.8,71.5L136.8,71.5z M136.8,68.8c0.5,0,0.9,0.4,0.9,0.9
    c0,0.5-0.4,0.9-0.9,0.9c-0.5,0-0.9-0.4-0.9-0.9C135.9,69.2,136.3,68.8,136.8,68.8C136.8,68.8,136.8,68.8,136.8,68.8z M140.7,126.6
    c0.1,0.2,0,0.4-0.3,0.5c0,0,0,0,0,0c-1.9,0.6-3.9,0.5-5.7-0.3c1,1.5,1.4,3.3,1.3,5.1c0,0.2-0.2,0.3-0.4,0.3h-0.1
    c-0.2,0-0.4-0.2-0.3-0.4c0.1-2.3-0.8-4.6-2.4-6.2c-0.2-0.1-0.2-0.4,0-0.6c0.1-0.2,0.4-0.2,0.6,0l0,0c1.9,1.5,4.5,2,6.8,1.3
    C140.4,126.2,140.6,126.4,140.7,126.6C140.7,126.6,140.7,126.6,140.7,126.6L140.7,126.6L140.7,126.6z M139.1,129.8
    c0.2,0.1,0.2,0.4,0,0.6c-0.1,0.2-0.4,0.2-0.6,0l0,0l-1.3-1.2c-0.2-0.2-0.2-0.4,0-0.6c0.1-0.1,0.4-0.2,0.5,0L139.1,129.8z" />
    <path class="st0" d="M34.7,100.1c-0.2-0.3-0.2-0.6-0.1-0.9c0.1-0.4,0.4-0.8,0.7-1c0.3-0.3,0.7-0.4,1-0.2
    c0.4,0.1,0.8,0.4,1,0.7c0.2,0.3,0.2,0.6,0.1,1c-0.1,0.4-0.3,0.7-0.6,1c-0.2,0.2-0.4,0.3-0.6,0.3c-0.3,0-0.5,0-0.8-0.1
    C35.1,100.7,34.9,100.5,34.7,100.1z" />
    <path class="st0" d="M165.9,100.1c-0.2-0.3-0.2-0.6-0.1-0.9c0.1-0.4,0.4-0.8,0.7-1c0.3-0.3,0.7-0.4,1-0.2
    c0.4,0.1,0.8,0.4,1,0.7c0.2,0.3,0.2,0.6,0.1,1c-0.1,0.4-0.3,0.7-0.6,1c-0.2,0.2-0.4,0.3-0.6,0.3c-0.3,0-0.5,0-0.8-0.1
    C166.3,100.7,166.1,100.5,165.9,100.1z" />
    <path class="st0" d="M46.3,81.8c-2-0.7-5.2-1.9-9.7-3.3c-4.5-1.5-6.9-2.2-7.2-2.1c-0.5-0.1-0.8-0.5-0.9-1
    c0-0.2,0-0.4,0-0.7c0-0.2,0.1-0.5,0.2-0.7c0.1-0.2,0.1-0.4,0.2-0.7c0.1-0.3,0.3-0.6,0.5-0.8c0.2-0.1,0.5-0.1,0.8,0
    c0.2,0.1,0.3,0.2,0.4,0.4c0,0.2,0,0.4-0.1,0.6l-0.1,0.2l-0.1,0.4c-0.2,0.5-0.2,0.8,0,0.8c0.9,0.3,2.1,0.7,3.6,1.1
    c1.2,0.3,2.4,0.7,3.5,1.1c0-0.1,0-0.4,0.1-0.8c0-0.3,0.1-0.5,0.2-0.8c0.1-0.2,0.2-0.3,0.4-0.4c0.2-0.1,0.4-0.1,0.6,0
    c0.2,0.1,0.4,0.3,0.4,0.5c0,0,0,0.1,0,0.3c0,0.2,0,0.4-0.1,0.5c0,0.2-0.1,0.4-0.2,0.8l-0.1,0.3c1,0.4,2.5,0.8,4.3,1.3
    c1.9,0.5,3.4,1,4.3,1.3l0.1,0.1l0,0c0.1,0,0.2,0.1,0.3,0.1c0.2,0.1,0.4,0.2,0.4,0.4c0.1,0.2,0.1,0.5,0,0.7
    C48,82.2,47.4,82.2,46.3,81.8z" />
    <path class="st0" d="M51.7,74.3c-0.5,0.2-1.1,0.3-1.7,0.3c-1.4-0.1-2.8-0.4-4.2-1c-1.1-0.4-2.4-1-3.8-1.7l-1.3-0.7
    l-1.3-0.7c-0.4-0.2-0.9-0.5-1.5-0.8c-0.9-0.5-1.7-1-2.5-1.6c-0.7-0.5-1.4-1.1-2-1.8c-0.5-0.5-0.8-1.2-0.8-1.9c0-0.3,0.1-0.7,0.3-1
    c0.4-0.8,1.2-1.4,2.1-1.5c1.1-0.1,2.1,0,3.1,0.3c1.2,0.3,2.4,0.8,3.5,1.4c1.2,0.6,2.3,1.1,3.3,1.7l1.4,0.8c0.3,0.2,0.8,0.5,1.5,1
    c0.5,0.3,1,0.7,1.5,0.9l0.1,0.1c0.5,0.4,1,0.7,1.5,1c0.5,0.3,0.9,0.6,1.2,1.1c0.4,0.4,0.6,1,0.8,1.5c0.2,0.5,0.2,1.1-0.1,1.5
    C52.6,73.8,52.2,74.1,51.7,74.3z M51.1,71.2c-0.5-0.6-1.1-1.1-1.7-1.5c-0.7-0.5-1.5-1.1-2.5-1.7c-0.4-0.3-0.9-0.6-1.6-1l-2.2-1.2
    c-0.9-0.5-2-1-3.4-1.5c-1.1-0.5-2.2-0.8-3.3-0.9c-0.4-0.1-0.9,0-1.3,0.1c-0.3,0.1-0.6,0.3-0.8,0.6c-0.2,0.4-0.1,0.9,0.4,1.4
    c0.6,0.6,1.2,1.2,1.9,1.7c0.8,0.6,1.6,1.1,2.3,1.5l0.8,0.5c0.2,0.1,0.5,0.3,0.9,0.5l0.1,0.1c1.3,0.7,2.7,1.4,4.2,1.9
    c1.6,0.8,3.4,1.3,5.2,1.4c0.7,0,1.2-0.2,1.4-0.5C51.7,72.2,51.6,71.8,51.1,71.2L51.1,71.2z" />
    <path class="st0" d="M57.7,64.2L57.7,64.2c-1-0.7-1.9-1.2-2.9-1.7c-1.1-0.5-2.5-1.1-4.2-1.7
    c-1.3-0.5-2.4-0.9-3.3-1.3l8.6,6.7c0.2,0.1,0.3,0.3,0.4,0.5c0,0.2,0,0.4-0.2,0.6c-0.1,0.2-0.3,0.3-0.5,0.3c-0.2,0-0.4-0.1-0.5-0.2
    l-0.2-0.1l-6.4-5.1c-1.9-1.5-4-3.2-6.3-5.1L39.4,55c-0.1-0.1-0.2-0.2-0.3-0.4c0-0.2,0.1-0.4,0.3-0.5c0.3-0.3,0.6-0.6,1-0.8
    c0.4-0.2,0.8-0.3,1.2-0.3c0.9,0,1.7,0.1,2.5,0.6c0.4,0.2,0.7,0.4,1.1,0.7c0.2,0.2,0.5,0.4,0.7,0.6c0.2,0.2,0.4,0.4,0.4,0.5
    c0.2,0.2,0.3,0.5,0.5,0.7c0.2,0.3,0.3,0.5,0.4,0.6l0.4,0.7L48,58c0.7,0.5,1.4,0.9,2.2,1.3c0.9,0.5,1.8,0.9,2.7,1.2
    c0.6,0.2,1.6,0.6,3,1.1l2.4,0.9l0,0c0.2,0.2,0.4,0.4,0.6,0.6c0.2,0.2,0.2,0.5,0,0.7C58.6,64.1,58.1,64.2,57.7,64.2z M45.9,57.3
    l-1.6-1.8c-0.1-0.1-0.2-0.2-0.3-0.3c-0.5-0.4-1.1-0.7-1.6-0.9c-0.3-0.1-0.6-0.2-0.9-0.2c-0.2,0-0.5,0-0.6,0.2l2.1,1.8
    c0.9,0.8,1.7,1.4,2.2,1.8c0.5,0.4,0.8,0.7,1,0.8C46.2,58.2,46.1,57.8,45.9,57.3L45.9,57.3z" />
    <path class="st0" d="M64.1,58c-0.2,0-0.4-0.1-0.5-0.3l-2.5-2.7c-0.5,0.1-0.9,0.3-1.3,0.6c-0.5,0.3-1.1,0.7-1.5,1.1
    c0.1,0.5,0.4,0.9,0.6,1.3l0.3,0.5c0.1,0.1,0.2,0.4,0.5,0.7c0.2,0.3,0.4,0.7,0.6,1c0.1,0.3,0.2,0.5,0.3,0.8c-0.5,0.5-0.9,0.6-1.3,0.4
    c-0.3-0.9-0.7-1.7-1.3-2.4l-2.8-4.3c-1.3-2-2.5-3.8-3.4-5.3c-0.8-1.2-1.5-2.5-2.1-3.9c-0.6-1.2-0.7-2-0.4-2.2
    c0.2-0.2,0.5-0.4,0.8-0.4c0.5,0.5,1.8,1.7,4,3.5c1.5,1.2,2.9,2.4,4.3,3.8c1,1,2,2,3.1,2.9c1.4,1.2,2.5,2.3,3.2,3.1
    c0.4,0.3,0.4,0.8,0.1,1.2c0,0.1-0.1,0.1-0.2,0.2C64.5,57.9,64.3,58,64.1,58z M59.9,53.9c-0.6-0.6-1.3-1.2-2.3-2
    c-3.2-2.8-5-4.5-5.7-5.2l-0.2-0.2c0.3,0.8,0.6,1.6,1.2,2.4c0.8,1.3,1.6,2.7,2.6,4.1c0.6,1,1.3,1.9,2,2.8c0.7-0.4,1.4-0.9,2-1.4
    C59.7,54.2,59.8,54,59.9,53.9L59.9,53.9z" />
    <path class="st0" d="M69.4,53.8c-0.9-0.2-1.7-0.5-2.5-1.1c-0.8-0.6-1.5-1.3-2.2-2.1c-0.6-0.7-1.2-1.5-1.8-2.4
    c-0.1-0.2-0.4-0.5-0.7-1l-0.5-0.8l-0.6-0.9c-0.4-0.7-0.9-1.5-1.5-2.4c-0.5-0.9-0.9-1.7-1.2-2.7c-0.3-0.8-0.5-1.7-0.4-2.6
    c0-0.8,0.3-1.6,0.7-2.3c0.3-0.3,0.6-0.6,1-0.9c0.6-0.4,1.1-0.4,1.4,0c0.1,0.2,0.1,0.3,0.1,0.5c-0.1,0.2-0.2,0.3-0.4,0.4
    c-0.1,0.1-0.2,0.1-0.4,0.1l-0.4,0.2c-0.3,0.2-0.5,0.5-0.6,0.8c-0.1,0.4-0.1,0.8-0.1,1.2c0.1,1,0.4,2,0.9,2.9c0.5,1,1,2,1.6,3
    c0.4,0.7,0.9,1.5,1.4,2.2l0.4,0.6c0.1,0.2,0.3,0.5,0.5,0.8c0.5,0.8,1,1.5,1.6,2.2c0.6,0.8,1.2,1.4,2,2c0.6,0.5,1.4,0.8,2.2,0.7
    c0.4,0,0.8-0.2,1.1-0.4c0.7-0.5,1.1-1.3,1.1-2.1c-0.4-0.5-0.8-1-1.2-1.5c-0.3-0.4-0.6-0.7-1-0.9c0,0-0.1,0.1-0.1,0.1l-0.2,0.2
    l-0.5,0.4c-0.5,0.3-0.9,0.3-1.2-0.2c-0.1-0.2-0.1-0.4,0-0.5c0.1-0.2,0.3-0.5,0.5-0.6c0.3-0.3,0.7-0.7,1.1-0.9
    c0.3-0.2,0.6-0.2,0.9-0.1c0.3,0.1,0.6,0.4,0.8,0.7c0.5,0.7,1,1.3,1.6,1.9c0.6,0.6,1.1,1.2,1.6,1.9c0.1,0.2,0.2,0.4,0.1,0.5
    c0,0.2-0.1,0.3-0.3,0.4c-0.3,0.2-0.8,0.3-1.1,0l0,0L72.9,52c-0.2,0.5-0.5,0.9-0.9,1.2C71.2,53.7,70.3,53.9,69.4,53.8z" />
    <path class="st0" d="M77.4,49.4c-0.3,0-0.6-0.1-0.7-0.5l-6.5-14.7c-0.2-0.4-0.5-0.8-0.7-1.2
    c-0.3-0.4-0.5-0.8-0.8-1.2l0-0.1c0-0.4,0.1-0.8,0.2-1.2c0.3-0.1,0.6-0.3,0.9-0.5c0.3-0.2,0.6-0.4,0.9-0.5c0.3-0.1,0.6-0.2,0.9-0.1
    c0.3,0,0.5,0.2,0.6,0.4c0.2,0.5,0,0.9-0.8,1.3l-0.4,0.2c-0.1,0-0.2,0.1-0.4,0.1c-0.1,0-0.2,0.1-0.3,0.1c0.3,0.6,0.6,1.2,1,2l0.4,0.7
    l0.7,1.4c0.1,0.3,0.3,0.8,0.6,1.5l0.6,1.4l0.3-0.2c0.2-0.2,0.5-0.4,0.8-0.5c0.2-0.1,0.4-0.1,0.6,0c0.2,0.1,0.4,0.2,0.4,0.4
    c0.1,0.2,0.1,0.4,0.1,0.6c0,0.2-0.2,0.4-0.4,0.4L75,39.3l-0.3,0.1c-0.2,0.1-0.4,0.2-0.5,0.4l3.5,7.8l1.4-0.7c1-0.4,1.5-0.4,1.7,0
    l0,0.1c0,0.3-0.1,0.5-0.3,0.7c-0.2,0.2-0.4,0.4-0.7,0.6L79,48.8l-0.8,0.3C78,49.3,77.7,49.4,77.4,49.4z" />
    <path class="st0" d="M90.5,43.1c-0.1-0.9-0.9-4-2.4-9.3c-1.5-5.3-2.4-8.2-2.7-8.6c0.1-0.4,0.4-0.7,0.9-0.8
    c0.4-0.1,0.9,0.8,1.6,2.7c0.6,2,1.2,4.2,1.8,6.8l0.5,2.2c0.3,1.2,0.4,1.9,0.5,1.9l0-2.3l0-1.4c-0.1-2.1-0.1-3.6-0.1-4.5
    c-0.1-1.1-0.1-1.9-0.2-2.4l-0.1-0.5c0-0.2,0-0.4,0.1-0.6c0.1-0.2,0.3-0.3,0.5-0.3c0.7-0.1,1,0.1,1.1,0.7l0.1,0.4
    c0.2,1.1,0.4,2.2,0.8,3.3c0.4,1.2,0.9,2.6,1.5,4.2c0.4,0.9,0.8,2.1,1.3,3.4c0-0.6-0.1-2.1-0.1-4.5c0-2.2,0-4-0.1-5.5
    c-0.1-1.5-0.2-2.9-0.4-4.2c-0.1-0.3,0-0.6,0.1-0.9c0.2-0.2,0.5-0.4,0.7-0.4c0.2,0,0.4,0,0.6,0.1c0.2,0.1,0.3,0.3,0.3,0.5
    c0,0.2,0,0.5-0.2,0.7c0.2,1.5,0.3,3.1,0.3,4.7c0,1.8,0,3.5,0,5.1c-0.1,1.6-0.1,3.3,0,5.1c0,1.6,0.1,3.2,0.4,4.7c0,0.2,0,0.5-0.1,0.7
    c-0.1,0.2-0.3,0.3-0.6,0.3c-0.2,0-0.5-0.3-0.9-1c-0.8-2-1.6-4-2.2-6l-0.9-3.1l-0.5-1.7c0,1.7,0,3.1,0,4.1c0,1,0.1,2.2,0.2,3.7
    c0.1,1.4,0.2,2.7,0.4,4c0,0.2,0,0.4-0.2,0.6c-0.1,0.2-0.3,0.3-0.5,0.3C91.1,45.2,90.6,44.5,90.5,43.1z" />
    <path class="st0" d="M101.9,42.9c0-0.4,0.3-0.7,0.9-0.6l0.3,0c0.1,0,0.2,0,0.2,0c0.1,0,0.2,0,0.3-0.1
    c0.1-0.2,0.1-0.3,0.1-0.5c0.1-1.6,0.1-3.7,0-6.4c-0.1-2.8-0.1-5,0-6.4c0-0.5,0-1,0.1-1.4l0.1-1.4c0-0.5,0-1,0-1.5
    c-0.2,0.1-0.4,0.1-0.6,0.1c-0.4,0-0.6-0.2-0.6-0.7c0-0.3,0.2-0.5,0.4-0.6c0.3-0.2,0.7-0.3,1.1-0.3c0.7-0.1,1.3-0.1,2-0.1
    c0.2,0,0.4,0.1,0.6,0.2c0.1,0.1,0.2,0.3,0.2,0.5c0,0.2-0.1,0.4-0.2,0.5c-0.1,0.1-0.3,0.2-0.5,0.2c-0.1,0-0.2,0-0.3,0l-0.2,0
    c-0.1,0-0.3,0-0.4,0.1c-0.1,0.1-0.2,0.3-0.1,0.5c-0.1,2-0.1,4.7,0,8.1c0.1,3.6,0.1,6.3,0,8.1l0,1.1c0.2,0,0.4,0,0.6,0
    c0.8,0,1.1,0.4,1.1,1l0,0.2l-0.7,0.4c0,0-0.1,0-0.2,0s-0.3,0-0.6,0c-0.6,0-1,0-1.2,0C102.7,43.8,101.9,43.5,101.9,42.9z" />
    <path class="st0" d="M111.3,44.3c-0.1-0.3-0.1-0.7-0.1-1c0.1-0.6,0.3-1.3,0.5-2.2l0.2-0.7l0.3-1.4
    c0.1-0.6,0.3-2.1,0.5-4.3c0.2-2.2,0.4-3.7,0.5-4.3c0-0.1,0-0.2,0.1-0.3c0-0.2,0.1-0.4,0.1-0.7c0.1-0.4,0.2-0.8,0.3-1.3
    c0.2-0.8,0.3-1.7,0.2-2.6c-0.2,0-0.5,0-0.7,0l-0.8-0.1c-0.2,0-0.4-0.1-0.6-0.3c-0.2-0.2-0.2-0.4-0.2-0.6c0-0.2,0.3-0.4,0.8-0.5
    c1.1-0.1,2.2-0.1,3.3,0.1c0.6,0.1,1,0.1,1.1,0.1c0.2,0,0.4,0.2,0.6,0.3c0.3,0.3,0.2,0.7,0,1c0,0-0.1,0.1-0.1,0.1
    c-0.2,0.1-0.4,0.1-0.6,0.1l-0.5-0.1c-0.2,0-0.3-0.1-0.5-0.1l-0.3,0c-0.1,1.1-0.2,2.3-0.4,3.4l-0.3,1.7c-0.1,0.5-0.2,1.1-0.3,1.8
    c-0.1,0.9-0.3,1.9-0.4,3.2c-0.2,1.5-0.3,2.6-0.4,3.2c-0.1,0.7-0.2,1.5-0.3,2.5c-0.1,1-0.2,1.8-0.3,2.5c-0.2,0.9-0.5,1.3-1,1.2
    C111.6,44.8,111.3,44.6,111.3,44.3z" />
    <path class="st0" d="M121.1,47.2c-0.1-0.2,0-0.5,0-0.7c1.2-3.7,2.1-6.8,2.8-9.4c-0.3-0.2-0.6-0.3-0.9-0.4
    c-0.5-0.2-1.1-0.3-1.6-0.3c-0.3,1-0.7,2.5-1.2,4.5c-0.5,2.2-1,3.7-1.2,4.5c-0.1,0.2-0.2,0.3-0.3,0.4c-0.1,0.1-0.3,0.1-0.5,0.1
    c-0.2-0.1-0.3-0.5-0.2-1.4c0.4-2.6,1-5.2,1.8-7.7c0.7-2.6,1.6-5.4,2.5-8.4c0.2-0.5,0.4-1.3,0.7-2.3c0-0.2,0.3-0.4,0.5-0.4
    c0,0,0.1,0,0.1,0c0.2,0.1,0.4,0.2,0.5,0.3c0.1,0.1,0.2,0.3,0.3,0.4c-0.3,0.6-0.5,1.3-0.7,1.9c-0.2,0.7-0.5,1.6-0.8,2.7
    c-0.3,1.2-0.6,2.2-0.8,2.8l-0.2,0.5c-0.1,0.2-0.1,0.3-0.2,0.5c-0.1,0.2-0.1,0.5-0.2,0.7c0.1,0,0.3,0.1,0.5,0.1
    c0.3,0.1,0.5,0.1,0.8,0.2c0.6,0.1,1,0.2,1.3,0.3c0.5-1.5,0.9-2.9,1.3-4.3l1.4-4.4l0.2-0.7c0.2,0.1,0.4,0.2,0.6,0.3
    c0.1,0.1,0.2,0.3,0.3,0.4c0.1,0.4,0.1,0.7,0,1.1l-0.2,0.6c-0.5,1.5-1.3,4.4-2.6,8.8c-1.1,3.9-2,6.8-2.6,8.8
    c-0.1,0.2-0.2,0.4-0.4,0.6c-0.2,0.1-0.4,0.2-0.6,0.1C121.3,47.6,121.1,47.4,121.1,47.2z" />
    <path class="st0" d="M134.7,53.8c0-0.2,0-0.4,0.1-0.6l2-3c-0.2-0.4-0.5-0.8-0.9-1.1c-0.5-0.4-0.9-0.9-1.4-1.2
    c-0.4,0.3-0.8,0.6-1.1,0.9l-0.4,0.4c-0.1,0.1-0.3,0.3-0.6,0.6c-0.3,0.3-0.6,0.6-0.9,0.8c-0.2,0.2-0.4,0.3-0.7,0.5
    c-0.6-0.4-0.8-0.8-0.7-1.1c0.7-0.5,1.4-1.1,2-1.8l3.5-3.8c1.6-1.8,3.1-3.3,4.3-4.6c1-1.1,2.1-2.1,3.2-3c1-0.8,1.7-1.2,2.1-0.9
    c0.3,0.2,0.5,0.4,0.6,0.7c-0.4,0.6-1.2,2.2-2.5,4.8c-0.8,1.7-1.7,3.4-2.6,5.1c-0.7,1.2-1.4,2.4-2,3.7c-0.9,1.7-1.6,3-2.2,3.9
    c-0.2,0.4-0.7,0.6-1.1,0.4c-0.1,0-0.1-0.1-0.2-0.1C134.9,54.2,134.7,54,134.7,53.8z M137.6,48.7c0.4-0.7,0.9-1.6,1.4-2.7
    c1.9-3.7,3.1-6,3.6-6.8l0.1-0.2c-0.8,0.5-1.4,1-2,1.7c-1.1,1.1-2.2,2.2-3.3,3.5c-0.8,0.8-1.5,1.7-2.2,2.6c0.5,0.6,1.2,1.2,1.9,1.6
    C137.3,48.6,137.5,48.7,137.6,48.7L137.6,48.7z" />
    <path class="st0" d="M145.4,56c2.1-4.1,4.1-7.9,6-11.2l-6.2,6.6c-0.5,0.6-1.4,1.6-2.6,3c-1.3,1.6-2.2,2.6-2.6,3
    c-0.1,0.1-0.3,0.2-0.5,0.1c-0.2-0.1-0.5-0.2-0.6-0.3c-0.3-0.3-0.3-0.5-0.1-0.7l0.6-0.5c0.4-0.4,0.7-0.7,0.8-0.8
    c0.7-0.7,1.7-1.9,3.1-3.5c1.4-1.6,2.3-2.6,2.6-3l2.4-2.6c0.4-0.4,1-1,1.8-1.8c0.7-0.7,1.3-1.3,1.8-1.8l0.1-0.1
    c0.6-0.7,1.1-0.9,1.4-0.6c0.2,0.2,0.1,0.7-0.2,1.5c-0.9,2.3-2,4.6-3.2,6.8c-1,1.8-2.3,4.1-3.9,6.9c0-0.1-0.3,0.5-1,1.7l-0.1,0.1
    c1.2-1.3,2.3-2.5,3.3-3.5l3.3-3.5l5.6-6c0.3-0.3,0.8-0.2,1.1,0.1c0,0,0,0,0,0c0.4,0.3,0.3,0.8-0.2,1.3l-0.1,0.1
    c-0.3,0.1-0.5,0.3-0.7,0.5c-0.8,0.8-2,2-3.6,3.6c-1.6,1.6-2.8,2.9-3.6,3.7l-5.8,6.1c-0.2,0.2-0.5,0.4-0.8,0.5
    c-0.2,0.1-0.5,0.1-0.7-0.1C142.9,61.5,143.6,59.6,145.4,56z" />
    <path class="st0" d="M146.8,65.4c-0.1-0.3,0-0.7,0.3-0.8l12.8-9.7c0.4-0.3,0.7-0.6,1-1c0.3-0.4,0.6-0.7,1-1l0.1-0.1
    c0.4-0.1,0.8-0.1,1.2-0.1c0.2,0.3,0.4,0.5,0.7,0.8c0.3,0.2,0.5,0.5,0.7,0.8c0.2,0.2,0.3,0.5,0.3,0.8c0.1,0.3,0,0.5-0.2,0.7
    c-0.4,0.3-0.9,0.2-1.4-0.5l-0.2-0.3c-0.1-0.1-0.1-0.2-0.2-0.3c-0.1-0.1-0.1-0.2-0.2-0.2c-0.5,0.4-1.1,0.9-1.7,1.5l-0.6,0.5l-1.2,1
    c-0.3,0.2-0.7,0.5-1.3,0.9l-1.3,0.9l0.3,0.3c0.3,0.2,0.5,0.4,0.7,0.6c0.1,0.2,0.2,0.4,0.1,0.6c0,0.2-0.1,0.4-0.3,0.5
    c-0.2,0.1-0.4,0.2-0.6,0.2c-0.2,0-0.4-0.1-0.5-0.2l-0.2-0.3l-0.2-0.3c-0.1-0.2-0.3-0.3-0.5-0.3l-6.8,5.2l1,1.2
    c0.6,0.8,0.8,1.4,0.4,1.7l-0.1,0.1c-0.3,0-0.6,0-0.8-0.2c-0.3-0.1-0.5-0.3-0.7-0.5l-0.6-0.7l-0.5-0.7
    C147.1,66,146.9,65.7,146.8,65.4z" />
    <path class="st0" d="M153.4,76.9c0-0.1-0.1-0.2-0.1-0.3c2.2-1.8,4.1-3.3,5.5-4.7c1.4-1.3,2.7-2.7,3.8-4.2h-1.2
    c-0.3,0-0.6,0-0.9,0.1c-0.5,0.2-0.9,0.4-1.1,0.5c-0.5,0.3-1.2,0.7-2.2,1.3c-1,0.6-1.7,1-2.2,1.3l-2,1.1c-0.9,0.5-1.4,0.4-1.7-0.1
    c-0.3-0.5,0.1-1,1-1.4c0.7-0.4,1.8-0.9,3.4-1.6c1.4-0.6,2.5-1.2,3.4-1.6l2.1-1.1l2.5-1.4c0.9-0.5,1.8-1.1,2.7-1.7
    c0.7-0.5,1.4-1,2.2-1.4c0.2-0.1,0.4-0.1,0.6-0.1c0.2,0,0.4,0.2,0.5,0.4c0.3,0.6-0.2,1.3-1.5,2l-5,2.6l1.4-0.2
    c1.7-0.2,3.3-0.4,4.9-0.5c0.7-0.1,1.5-0.1,2.2-0.1c0.6,0,0.9,0.1,1,0.3c0.1,0.2,0.1,0.4,0.1,0.6c0,0.2-0.2,0.4-0.3,0.5
    c-1.2,0.2-2.5,0.3-3.7,0.3c-1.5,0-2.9,0.1-4.3,0.4L164,68c-0.5,0.6-2.1,2.3-4.9,5.1c-2.8,2.9-4.2,4.3-4.4,4.4
    c-0.2,0.1-0.4,0.1-0.6,0c-0.2-0.1-0.4-0.2-0.5-0.4C153.5,77.1,153.5,77,153.4,76.9z" />
    <path class="st0" d="M155.6,80.7c0-0.3,0.2-0.6,0.6-0.7l15.2-5.3c0.4-0.2,0.9-0.4,1.3-0.6c0.4-0.3,0.8-0.5,1.3-0.7
    l0.1,0c0.4,0.1,0.8,0.2,1.2,0.3c0.1,0.3,0.3,0.6,0.4,0.9c0.2,0.3,0.3,0.6,0.4,0.9c0.1,0.3,0.1,0.6,0,0.9c0,0.3-0.2,0.5-0.4,0.6
    c-0.5,0.2-0.9-0.1-1.2-0.9l-0.1-0.4c0-0.1-0.1-0.3-0.1-0.4c0-0.1-0.1-0.2-0.1-0.3c-0.6,0.2-1.3,0.5-2.1,0.9l-0.7,0.3l-1.4,0.6
    c-0.3,0.1-0.8,0.3-1.5,0.5l-1.5,0.5l0.2,0.3c0.2,0.2,0.3,0.5,0.5,0.8c0.1,0.2,0.1,0.4,0,0.6c-0.1,0.2-0.2,0.3-0.4,0.4
    c-0.2,0.1-0.4,0.1-0.6,0c-0.2-0.1-0.4-0.2-0.4-0.4l-0.1-0.3l-0.1-0.3c0-0.2-0.2-0.4-0.4-0.5l-8.1,2.8l0.6,1.4c0.3,1,0.3,1.6-0.2,1.7
    l-0.1,0c-0.3,0-0.5-0.2-0.7-0.4c-0.2-0.2-0.4-0.5-0.5-0.7l-0.3-0.9l-0.3-0.8C155.7,81.4,155.6,81,155.6,80.7z" />
    <path class="st0" d="M35.8,116.6c1.5-0.3,4-1,7.3-1.8c1.8-0.4,3.5-0.9,5.2-1.6c0.3-0.1,0.7,0,0.9,0.2
    c0.1,0.1,0.2,0.3,0.3,0.4c0.1,0.2,0.1,0.3,0.2,0.5c0.1,0.2,0.1,0.3,0.1,0.5c0.1,0.2,0.1,0.5,0,0.7c-0.1,0.2-0.3,0.3-0.5,0.3
    c-0.1,0-0.3,0-0.4-0.1c-0.1-0.1-0.2-0.2-0.2-0.4l0-0.2l-0.1-0.3c-0.1-0.4-0.2-0.5-0.3-0.5c-0.7,0.2-1.6,0.4-2.7,0.7
    c-0.9,0.3-1.8,0.5-2.6,0.7c0,0.1,0.1,0.3,0.2,0.5c0.1,0.2,0.2,0.4,0.2,0.6c0,0.1,0,0.3-0.1,0.4c-0.1,0.1-0.2,0.2-0.4,0.3
    c-0.2,0-0.4,0-0.5-0.2c0,0-0.1-0.1-0.1-0.2c-0.1-0.1-0.1-0.2-0.2-0.4c0-0.1-0.1-0.3-0.2-0.6l0-0.2c-0.8,0.2-1.9,0.5-3.2,0.9
    c-1.4,0.4-2.5,0.7-3.2,0.9h-0.1l0,0c-0.1,0-0.2,0.1-0.3,0.1c-0.2,0-0.3,0-0.4-0.1c-0.1-0.1-0.2-0.3-0.3-0.4
    C34.6,117,34.9,116.8,35.8,116.6z" />
    <path class="st0" d="M37.3,127.1c0.1-0.4,0.4-0.8,0.6-1.1c0.7-0.8,1.6-1.4,2.5-1.9c0.8-0.4,1.7-0.9,2.7-1.4l1-0.4
    l1-0.4c0.3-0.1,0.7-0.3,1.2-0.5c0.7-0.3,1.3-0.5,2-0.7c0.6-0.2,1.3-0.3,1.9-0.3c0.5,0,1,0.1,1.4,0.4c0.2,0.2,0.3,0.4,0.4,0.6
    c0.3,0.6,0.2,1.3-0.2,1.9c-0.4,0.7-1,1.2-1.7,1.6c-0.8,0.5-1.6,1-2.4,1.3c-0.9,0.4-1.7,0.8-2.5,1.1l-1.1,0.4
    c-0.2,0.1-0.6,0.2-1.2,0.4c-0.4,0.1-0.8,0.2-1.2,0.4l-0.1,0c-0.4,0.1-0.9,0.2-1.3,0.4c-0.4,0.1-0.8,0.2-1.2,0.2
    c-0.4,0-0.8-0.1-1.2-0.3c-0.4-0.1-0.7-0.4-0.8-0.8C37.2,127.8,37.2,127.4,37.3,127.1z M39.3,128.1c0.6,0,1.1-0.1,1.6-0.3
    c0.6-0.2,1.3-0.4,2.1-0.6c0.3-0.1,0.8-0.3,1.3-0.5l1.7-0.7c0.7-0.3,1.5-0.7,2.5-1.2c0.8-0.4,1.5-0.9,2.1-1.5
    c0.2-0.2,0.4-0.5,0.6-0.8c0.1-0.2,0.1-0.5,0-0.7c-0.1-0.3-0.5-0.5-1-0.4c-0.6,0-1.2,0.1-1.8,0.3c-0.7,0.2-1.4,0.4-2,0.6l-0.6,0.2
    c-0.2,0.1-0.4,0.1-0.7,0.3l-0.1,0c-1,0.4-2,0.9-3,1.5c-1.2,0.6-2.3,1.3-3.2,2.3c-0.3,0.4-0.5,0.8-0.4,1.1
    C38.5,128,38.8,128.1,39.3,128.1z" />
    <path class="st0" d="M43.2,138.2L43.2,138.2c0.7-0.5,1.4-1,1.9-1.5c0.7-0.6,1.4-1.4,2.3-2.4c0.7-0.7,1.3-1.4,1.8-1.9
    l-6.9,4c-0.1,0.1-0.3,0.1-0.5,0.1c-0.1,0-0.2-0.1-0.4-0.3c-0.1-0.1-0.1-0.3-0.1-0.4c0-0.1,0.1-0.3,0.3-0.3l0.1-0.1l5.2-3
    c1.5-0.9,3.3-1.8,5.2-2.9l2.2-1.3c0.1-0.1,0.2-0.1,0.3-0.1c0.1,0,0.2,0.1,0.3,0.3c0.2,0.3,0.3,0.6,0.3,0.9c0,0.3,0,0.6-0.1,0.9
    c-0.2,0.6-0.6,1.1-1.1,1.6c-0.2,0.2-0.5,0.4-0.8,0.5c-0.2,0.1-0.4,0.2-0.6,0.3c-0.2,0.1-0.4,0.1-0.4,0.2c-0.2,0.1-0.4,0.1-0.6,0.1
    c-0.3,0.1-0.5,0.1-0.5,0.1l-0.6,0.1l-0.6,0.1c-0.5,0.3-1,0.7-1.5,1.1c-0.6,0.5-1.1,1-1.5,1.5c-0.3,0.3-0.8,0.9-1.6,1.8l-1.3,1.4l0,0
    c-0.2,0.1-0.4,0.2-0.5,0.2c-0.2,0.1-0.4,0-0.5-0.2C43,138.8,43.1,138.4,43.2,138.2z M51.1,132l1.7-0.6c0.1,0,0.2-0.1,0.3-0.1
    c0.4-0.2,0.8-0.5,1.1-0.9c0.2-0.2,0.3-0.4,0.4-0.6c0.1-0.1,0.1-0.3,0-0.5l-1.8,1c-0.8,0.4-1.4,0.8-1.9,1c-0.4,0.2-0.7,0.4-0.8,0.5
    C50.4,131.9,50.7,132,51.1,132L51.1,132z" />
    <path class="st0" d="M49.1,146.8c0-0.2,0.1-0.3,0.2-0.4l2.1-1.7c-0.1-0.3-0.2-0.7-0.4-1c-0.2-0.4-0.5-0.8-0.7-1.2
    c-0.4,0.1-0.7,0.2-1,0.4l-0.4,0.2c-0.1,0-0.3,0.1-0.6,0.3c-0.3,0.1-0.5,0.3-0.8,0.4c-0.2,0.1-0.4,0.1-0.6,0.2
    c-0.3-0.4-0.4-0.7-0.2-1c0.6-0.2,1.2-0.4,1.8-0.8l3.3-1.8c1.6-0.9,2.9-1.6,4-2.2c1-0.5,1.9-1,2.9-1.3c0.9-0.3,1.5-0.4,1.6-0.2
    c0.2,0.2,0.3,0.4,0.3,0.6c-0.4,0.3-1.4,1.3-2.8,2.8c-0.9,1-1.9,2-3,2.9c-0.8,0.7-1.5,1.4-2.3,2.1c-1,1-1.8,1.7-2.4,2.2
    c-0.2,0.2-0.6,0.3-0.8,0c0,0-0.1-0.1-0.1-0.1C49.2,147.1,49.1,146.9,49.1,146.8z M52.3,143.9c0.4-0.4,1-0.9,1.6-1.5
    c2.2-2.2,3.5-3.5,4.1-3.9l0.1-0.1c-0.6,0.1-1.2,0.4-1.8,0.7c-1,0.5-2,1.1-3.1,1.7c-0.7,0.4-1.4,0.8-2.1,1.3c0.2,0.6,0.6,1.1,0.9,1.6
    C52.1,143.8,52.2,143.8,52.3,143.9z" />
    <path class="st0" d="M55.4,153.3c-0.1-0.7,0-1.3,0.3-2c0.3-0.7,0.6-1.3,1.1-1.9c0.4-0.6,0.8-1.2,1.3-1.7
    c0.1-0.1,0.3-0.4,0.6-0.7l0.5-0.5l0.5-0.6c0.4-0.4,0.9-0.9,1.4-1.5c0.5-0.5,1.1-0.9,1.6-1.4c0.5-0.4,1.1-0.7,1.8-0.8
    c0.6-0.2,1.2-0.1,1.7,0.1c0.3,0.1,0.6,0.3,0.8,0.5c0.4,0.4,0.5,0.7,0.3,1c-0.1,0.1-0.2,0.2-0.3,0.2c-0.1,0-0.3-0.1-0.4-0.2
    c-0.1-0.1-0.1-0.1-0.2-0.2l-0.2-0.2c-0.2-0.2-0.4-0.3-0.7-0.3c-0.3,0-0.6,0-0.8,0.2c-0.7,0.3-1.3,0.7-1.9,1.2
    c-0.6,0.5-1.3,1.1-1.8,1.7c-0.4,0.4-0.9,0.9-1.3,1.4l-0.4,0.4c-0.1,0.1-0.3,0.3-0.5,0.5c-0.5,0.5-0.9,1-1.3,1.6
    c-0.4,0.5-0.8,1.2-1,1.8c-0.3,0.5-0.3,1.1-0.1,1.7c0.1,0.3,0.3,0.5,0.5,0.7c0.5,0.4,1.1,0.5,1.7,0.4c0.3-0.4,0.6-0.7,0.8-1.1
    c0.2-0.3,0.3-0.5,0.4-0.9c0,0,0,0-0.1-0.1l-0.2-0.1l-0.4-0.3c-0.3-0.3-0.4-0.6-0.1-0.9c0.1-0.1,0.2-0.1,0.4-0.1
    c0.2,0,0.4,0.1,0.5,0.2c0.3,0.2,0.6,0.3,0.9,0.6c0.2,0.2,0.3,0.4,0.3,0.6c0,0.3-0.2,0.5-0.3,0.7c-0.4,0.5-0.8,1-1.1,1.5
    c-0.3,0.5-0.7,1-1,1.5c-0.1,0.1-0.2,0.2-0.4,0.2c-0.1,0-0.3,0-0.4-0.1c-0.2-0.2-0.3-0.5-0.2-0.8l0,0l-0.5-0.1
    c-0.4-0.1-0.7-0.2-1-0.4C55.8,154.6,55.4,154,55.4,153.3z" />
    <path class="st0" d="M63.6,160.1c-0.2-0.2-0.1-0.5,0-0.7l6.4-9.9c0.2-0.3,0.3-0.6,0.5-0.9c0.1-0.3,0.3-0.6,0.4-0.9
    l0-0.1c0.3-0.1,0.5-0.3,0.8-0.3c0.2,0.1,0.4,0.2,0.7,0.3c0.2,0.1,0.5,0.2,0.7,0.3c0.2,0.1,0.3,0.3,0.4,0.5c0.1,0.2,0.1,0.4,0,0.5
    c-0.2,0.3-0.6,0.3-1.1,0l-0.2-0.2c-0.1-0.1-0.1-0.1-0.2-0.2c-0.1,0-0.1-0.1-0.2-0.1c-0.2,0.4-0.5,0.9-0.8,1.4l-0.3,0.5l-0.6,1
    c-0.1,0.2-0.4,0.5-0.7,1l-0.7,0.9l0.3,0.1c0.2,0.1,0.4,0.1,0.6,0.3c0.1,0.1,0.2,0.2,0.2,0.4c0,0.1,0,0.3-0.1,0.4
    c-0.1,0.1-0.2,0.2-0.4,0.3c-0.1,0.1-0.3,0-0.4,0l-0.2-0.1l-0.2-0.1c-0.1-0.1-0.3-0.1-0.4-0.1l-3.4,5.3l1,0.6
    c0.6,0.4,0.9,0.8,0.7,1.1l0,0.1c-0.2,0.1-0.4,0.1-0.6,0.1c-0.2,0-0.4-0.1-0.6-0.2l-0.6-0.3l-0.5-0.3
    C63.9,160.4,63.8,160.2,63.6,160.1z" />
    <path class="st0" d="M70.8,166.4c-0.1,0-0.2-0.2-0.1-0.3l0.1-0.1l0.7-0.3c0.2-0.1,0.4-0.3,0.6-0.5
    c0,0,0.1-0.1,0.1-0.2c0-0.1,0-0.1,0.1-0.2c-0.2-0.1-0.3-0.2-0.4-0.4c0-0.2,0-0.4,0-0.6c0-0.2,0.2-0.4,0.4-0.4c0.2,0,0.5,0,0.7,0.1
    c0.4,0.1,0.5,0.6,0.4,0.9c0,0,0,0,0,0c-0.2,0.4-0.5,0.8-0.8,1.1c-0.4,0.4-0.9,0.6-1.4,0.8C71,166.4,71,166.4,70.8,166.4L70.8,166.4z
    " />
    <path class="st0" d="M87.3,170.2c-0.3-0.2-0.5-0.5-0.7-0.9c-0.2-0.4-0.3-0.8-0.3-1.2c-0.1-0.5-0.1-0.9-0.1-1.4
    c0-1.1,0.1-2.1,0.3-3.1c0.1-0.3,0.2-0.8,0.3-1.6l0.3-1.3c0.1-0.4,0.2-0.7,0.3-1.1c0.1-0.6,0.3-1.2,0.5-1.8c0-0.2,0-0.4,0.1-0.6
    c0.1-0.8,0.6-1.4,1.3-1.7c0.7-0.4,1.6-0.5,2.4-0.3c0.3,0.1,0.6,0.2,0.9,0.5c0.2,0.2,0.3,0.5,0.3,0.8c0,0.1-0.1,0.2-0.2,0.3
    c-0.1,0.1-0.3,0.1-0.4,0c-0.1,0-0.3-0.1-0.4-0.1c-0.1-0.1-0.2-0.2-0.3-0.2l-0.3-0.1l0,0c-0.4-0.1-0.9-0.1-1.3,0.1
    c-0.3,0.2-0.6,0.4-0.7,0.7c-0.1,0.2-0.2,0.3-0.2,0.5c-0.1,0.2-0.1,0.4-0.2,0.6c0,0.1-0.1,0.3-0.2,0.6l-0.1,0.7l-0.1,0.7
    c-0.1,0.2-0.1,0.5-0.2,0.7c-0.1,0.2-0.2,0.4-0.2,0.7l-0.1,0.5c-0.1,0.5-0.2,1.2-0.4,2.1c-0.1,0.8-0.2,1.5-0.2,2.3
    c0,0.7,0.1,1.3,0.3,1.9c0.2,0.5,0.6,0.9,1.1,1c0.3,0,0.6,0,0.9-0.2c0.3-0.1,0.5-0.2,0.8-0.2c0.2,0.1,0.4,0.2,0.5,0.4
    c-0.1,0.5-0.4,0.8-0.8,1c-0.4,0.2-0.9,0.2-1.3,0.2c-0.3,0-0.5-0.1-0.6-0.1C87.9,170.6,87.6,170.4,87.3,170.2z" />
    <path class="st0" d="M98.1,171.8c-0.3-0.3-0.6-0.6-0.7-1c-0.4-1-0.7-2-0.7-3c-0.1-0.9-0.2-1.9-0.2-3.1l0-1.1l0-1.1
    c0-0.4,0-0.8,0-1.3c0-0.7,0.1-1.4,0.2-2.1c0.1-0.7,0.2-1.3,0.5-1.9c0.2-0.5,0.5-0.9,1-1.1c0.2-0.1,0.5-0.1,0.7-0.1
    c0.7,0,1.3,0.4,1.7,0.9c0.4,0.7,0.7,1.4,0.8,2.2c0.2,0.9,0.3,1.8,0.2,2.7c0,1,0,1.9,0,2.7l-0.1,1.2c0,0.2-0.1,0.7-0.2,1.3
    c-0.1,0.4-0.1,0.8-0.1,1.3v0.1c-0.1,0.4-0.2,0.9-0.2,1.3c0,0.4-0.1,0.8-0.3,1.2c-0.2,0.4-0.4,0.7-0.7,1c-0.3,0.3-0.6,0.5-1,0.4
    C98.7,172.2,98.4,172,98.1,171.8z M99.9,170.3c0.2-0.5,0.3-1.1,0.4-1.6c0.1-0.6,0.2-1.4,0.3-2.2c0-0.4,0.1-0.8,0.1-1.4l0.1-1.9
    c0-0.7,0-1.7-0.1-2.8c-0.1-0.9-0.2-1.7-0.5-2.5c-0.1-0.3-0.3-0.6-0.5-0.8c-0.2-0.2-0.4-0.3-0.6-0.3c-0.3,0-0.6,0.2-0.8,0.8
    c-0.2,0.6-0.4,1.2-0.5,1.8c-0.1,0.7-0.2,1.4-0.2,2l0,0.7c0,0.2,0,0.4-0.1,0.8v0.1c0,1.1,0,2.2,0.1,3.4c0,1.3,0.3,2.6,0.8,3.9
    c0.2,0.5,0.5,0.7,0.8,0.7C99.4,171.1,99.7,170.8,99.9,170.3L99.9,170.3z" />
    <path class="st0" d="M109.4,171.5c-0.4-0.2-0.7-0.5-0.9-0.9c-0.6-0.9-1-1.9-1.2-2.9c-0.2-0.9-0.5-1.9-0.7-3l-0.1-1.1
    l-0.1-1.1c-0.1-0.3-0.1-0.8-0.2-1.3c-0.1-0.7-0.1-1.4-0.2-2.1c0-0.7,0-1.3,0.2-2c0.1-0.5,0.4-1,0.8-1.3c0.2-0.1,0.5-0.2,0.7-0.2
    c0.7-0.1,1.3,0.1,1.8,0.6c0.5,0.6,0.9,1.3,1.2,2c0.3,0.9,0.5,1.8,0.7,2.7c0.2,0.9,0.3,1.8,0.4,2.7l0.1,1.1c0,0.2,0,0.7,0.1,1.3
    c0,0.4,0,0.9,0.1,1.3l0,0.1c0,0.4,0,0.9,0,1.3c0,0.4,0,0.8-0.1,1.2c-0.1,0.4-0.3,0.8-0.6,1.1c-0.2,0.3-0.6,0.5-0.9,0.6
    C110.1,171.7,109.7,171.7,109.4,171.5z M111,169.8c0.1-0.5,0.2-1.1,0.2-1.7c0-0.6,0-1.4-0.1-2.2c0-0.4-0.1-0.8-0.1-1.4l-0.2-1.9
    c-0.1-0.7-0.3-1.6-0.6-2.7c-0.2-0.8-0.5-1.6-0.9-2.4c-0.1-0.3-0.3-0.5-0.6-0.7c-0.2-0.2-0.4-0.2-0.7-0.2c-0.3,0-0.6,0.3-0.7,0.9
    c-0.1,0.6-0.2,1.2-0.2,1.9c0,0.7,0,1.4,0.1,2.1l0.1,0.7c0,0.2,0,0.4,0.1,0.8l0,0.1c0.2,1.1,0.4,2.2,0.7,3.3c0.2,1.3,0.7,2.6,1.4,3.7
    c0.3,0.4,0.6,0.6,0.9,0.6C110.6,170.6,110.8,170.3,111,169.8L111,169.8z" />
    <path class="st0" d="M123.4,168.7c-0.1,0-0.1,0-0.2,0c-0.9-1.9-1.8-3.4-2.5-4.7c-0.7-1.2-1.5-2.3-2.4-3.4l-0.2,0.9
    c-0.1,0.2-0.1,0.4,0,0.6c0.1,0.4,0.1,0.7,0.2,0.9c0.1,0.4,0.3,1,0.6,1.8c0.3,0.8,0.5,1.4,0.6,1.8l0.5,1.6c0.2,0.7,0.1,1.1-0.4,1.2
    c-0.4,0.1-0.7-0.2-0.9-0.9c-0.2-0.6-0.4-1.5-0.7-2.7c-0.2-1.1-0.4-2-0.6-2.7l-0.5-1.7l-0.6-2c-0.2-0.7-0.5-1.5-0.8-2.2
    c-0.3-0.6-0.5-1.2-0.7-1.8c-0.1-0.2,0-0.3,0-0.5c0.1-0.1,0.2-0.2,0.3-0.3c0.5-0.1,0.9,0.3,1.2,1.4l1.1,4l0.1-1.1
    c0.1-1.2,0.2-2.4,0.4-3.6c0.1-0.5,0.2-1.1,0.3-1.6c0.1-0.4,0.2-0.6,0.4-0.7c0.1,0,0.3,0,0.4,0c0.1,0.1,0.2,0.2,0.3,0.3
    c0,0.9-0.2,1.8-0.3,2.7c-0.2,1-0.3,2.1-0.4,3.2l0.1,0.4c0.3,0.4,1.3,1.9,2.9,4.3c1.6,2.4,2.5,3.7,2.5,3.9c0,0.2,0,0.3-0.1,0.4
    c-0.1,0.1-0.2,0.2-0.4,0.3C123.6,168.7,123.5,168.7,123.4,168.7z" />
    <path class="st0" d="M137.2,161.5c-0.6,0-1.1-0.2-1.6-0.5c-0.4-0.3-0.8-0.6-1.1-1.1c-0.3-0.5-0.6-1.1-0.9-1.6
    c-0.1-0.3-0.2-0.5-0.3-0.8c0-0.1-0.1-0.3-0.1-0.4c0-0.1-0.1-0.2-0.1-0.3c0-0.2-0.1-0.5-0.1-0.9c-0.1-0.3-0.1-0.6-0.1-0.8
    c-0.1-0.3-0.1-0.7-0.1-1c-0.2-0.3-0.5-0.7-0.8-1.1c-0.4-0.5-0.6-0.9-0.8-1.1l-0.9-1.4c-0.2-0.3-0.3-0.7-0.3-1.1
    c0.1-0.3,0.3-0.6,0.6-0.8c0.4-0.3,1-0.4,1.5-0.3c0.5,0,1,0.3,1.2,0.7c0.4,0.6,0.7,1.3,0.9,2c0.1,0.8,0.1,1.6,0,2.3
    c0,0.1,0,0.2,0,0.3c0,0.3,0,0.5,0.1,0.8c0.4,0.5,0.8,1,1.3,1.4c0.7,0.6,1.4,1.1,2.1,1.7c0.5,0.4,1,0.7,1.6,0.9
    c-0.2-1.2-0.7-2.3-1.4-3.3l-0.1-0.1c-0.1,0.1-0.2,0.1-0.2,0l-0.1,0l-0.1-0.1l-0.1,0c0,0,0,0,0,0l-0.3-0.4c0.3-0.2,0.6-0.5,1-0.8
    c0.3-0.2,0.5-0.5,0.8-0.7c0.4-0.1,0.6-0.1,0.8,0.1c0.1,0.2,0.1,0.4,0,0.5c-0.1,0.2-0.3,0.4-0.5,0.5l0,0l0,0l-0.4,0.3
    c1.2,1.8,1.7,3.2,1.7,4.1c0.5,0.1,1,0.1,1.4-0.2l0.3-0.3l0.3-0.2l0.5,0.1c0.1,0.2,0.2,0.4,0.1,0.6c-0.1,0.2-0.3,0.4-0.6,0.5
    c-0.6,0.4-1.3,0.5-2,0.4c-0.3,0.8-0.8,1.4-1.5,1.9C138.2,161.4,137.7,161.5,137.2,161.5z M133.2,151.2c0-0.5-0.1-1-0.4-1.4
    c-0.2-0.3-0.5-0.5-0.8-0.6c-0.4-0.2-0.7-0.2-0.9-0.1c-0.2,0.1-0.2,0.3-0.2,0.7l0.6,0.9l0.8,1.1c0.2,0.3,0.5,0.7,0.8,1.1l0.1,0.2
    C133.2,152.5,133.2,151.9,133.2,151.2L133.2,151.2z M138.9,159.7c0.2-0.2,0.3-0.4,0.4-0.7c-2.1-0.9-4-2.2-5.5-3.9
    c0,1.4,0.5,2.8,1.3,3.9c0.3,0.5,0.8,1,1.4,1.3c0.3,0.2,0.6,0.2,0.9,0.2c0.3,0,0.6-0.1,0.9-0.3C138.6,160.2,138.7,160,138.9,159.7
    L138.9,159.7z" />
    <path class="st0" d="M153.1,148.6c-0.2,0.1-0.4,0-0.6-0.1c0-0.4-0.5-1-1.5-1.9c-0.6-0.5-1.5-1.2-2.7-2
    c-1.2-0.8-2.1-1.5-2.7-2l-0.8-0.7c-0.2-0.2-0.5-0.5-0.8-0.7c-0.4-0.3-0.8-0.6-1.2-0.8c-0.4-0.2-0.8-0.4-1.1-0.6
    c-0.4-0.3-0.2-0.9,0.5-1.7l0.2-0.2c0.4-0.5,1.1-0.9,1.7-1c0.7-0.1,1.3,0,2,0.2c0.7,0.2,1.3,0.5,1.9,0.9c0.5,0.3,1,0.7,1.4,1.1
    l0.5,0.4l0.7,0.6c0,0.1,0.1,0.1,0.1,0.1c0.1,0.1,0.1,0.1,0.2,0.1c0.1,0,0.1,0.1,0.2,0.1c0.4,0.3,0.8,0.7,1.1,1.1
    c0.4,0.5,0.7,1,1.1,1.6c0.7,1.1,1,2.3,1.1,3.6c0,0.5-0.2,1-0.5,1.4C153.5,148.3,153.3,148.5,153.1,148.6z M152.9,145.2
    c-0.2-0.7-0.5-1.3-0.9-1.9c-0.8-1.1-1.7-2.1-2.7-3c-0.6-0.5-1.3-1-2-1.4c-0.7-0.4-1.5-0.7-2.4-0.7c-0.4,0-0.8,0-1.1,0.2
    c-0.4,0.2-0.7,0.4-1,0.7l0,0c0.9,0.8,2.4,1.9,4.4,3.4c2,1.4,3.5,2.6,4.4,3.4l1.5,1.2C153.1,146.4,153.1,145.8,152.9,145.2z" />
    <path class="st0" d="M159.3,139.6c-0.3-0.2-0.3-0.4-0.1-0.8l0.1-0.2c0,0,0.1-0.1,0.1-0.1c0.1-0.1,0.1-0.2,0-0.3
    c-0.1-0.1-0.2-0.2-0.3-0.3c-1-0.6-2.4-1.3-4.1-2.3c-1.8-1-3.2-1.7-4.1-2.3c-0.3-0.2-0.6-0.4-0.9-0.6l-0.9-0.6
    c-0.3-0.2-0.6-0.4-1-0.5c0,0.2-0.1,0.3-0.2,0.4c-0.1,0.2-0.3,0.3-0.6,0.2c0,0-0.1,0-0.1-0.1c-0.2-0.1-0.2-0.3-0.2-0.5
    c0-0.3,0.1-0.5,0.2-0.8c0.2-0.5,0.4-0.9,0.6-1.3c0.1-0.1,0.2-0.2,0.4-0.3c0.1,0,0.3,0,0.4,0.1c0.1,0.1,0.2,0.2,0.3,0.3
    c0,0.1,0,0.3,0,0.4c0,0.1-0.1,0.1-0.1,0.2l-0.1,0.1c-0.1,0.1-0.1,0.2-0.1,0.3c0,0.1,0.1,0.2,0.2,0.3c1.2,0.7,3,1.7,5.2,2.8
    c2.3,1.2,4.1,2.2,5.2,2.9l0.7,0.4c0.1-0.1,0.1-0.2,0.2-0.4c0.3-0.5,0.6-0.6,1-0.4l0.1,0.1l0,0.6c0,0,0,0-0.1,0.1s-0.1,0.2-0.2,0.4
    c-0.2,0.4-0.4,0.7-0.4,0.8C160.1,139.4,159.6,139.8,159.3,139.6z" />
    <path class="st0" d="M162.2,126.8c-3.4-0.3-6.5-0.7-9.2-1.1l6.2,2.5c0.5,0.2,1.4,0.5,2.7,0.9c1.4,0.5,2.3,0.8,2.7,1
    c0.1,0.1,0.2,0.2,0.2,0.3c0,0.2,0,0.4-0.1,0.5c-0.1,0.3-0.3,0.4-0.5,0.3l-0.5-0.3c-0.4-0.2-0.6-0.3-0.8-0.4
    c-0.7-0.3-1.7-0.7-3.2-1.2c-1.5-0.5-2.4-0.8-2.7-1l-2.4-1c-0.4-0.2-1-0.4-1.7-0.8c-0.6-0.3-1.2-0.6-1.7-0.8l-0.1,0
    c-0.6-0.3-0.9-0.5-0.8-0.8c0.1-0.2,0.4-0.3,1.1-0.3c1.8,0,3.7,0.1,5.5,0.4c1.5,0.2,3.4,0.5,5.7,0.8c-0.1,0,0.4,0.1,1.4,0.2l0.1,0
    c-1.2-0.5-2.3-0.9-3.3-1.4l-3.3-1.4l-5.6-2.3c-0.3-0.1-0.4-0.5-0.2-0.8c0,0,0,0,0,0c0.1-0.3,0.4-0.4,0.9-0.2l0.1,0
    c0.1,0.1,0.3,0.3,0.5,0.3c0.8,0.3,1.9,0.8,3.4,1.5c1.5,0.7,2.7,1.2,3.5,1.5l5.7,2.3c0.2,0.1,0.4,0.2,0.5,0.4
    c0.1,0.1,0.2,0.3,0.1,0.5C166.6,127.1,165.1,127.1,162.2,126.8z" />
    <path class="st0" d="M168.7,119.1c-0.1,0.2-0.4,0.3-0.6,0.2l-11.5-2.6c-0.3-0.1-0.7-0.1-1-0.1c-0.3,0-0.7,0-1-0.1
    l-0.1,0c-0.2-0.2-0.4-0.4-0.6-0.7c0-0.2,0.1-0.5,0.1-0.8c0-0.3,0-0.5,0.1-0.8c0.1-0.2,0.2-0.4,0.3-0.6c0.1-0.2,0.3-0.2,0.5-0.2
    c0.4,0.1,0.5,0.4,0.4,1l-0.1,0.3c0,0.1-0.1,0.2-0.1,0.3c0,0.1,0,0.1,0,0.2c0.4,0.1,1,0.2,1.6,0.3l0.6,0.1l1.1,0.2
    c0.3,0.1,0.6,0.2,1.1,0.3l1.1,0.3v-0.3c0-0.2,0-0.5,0-0.7c0-0.1,0.1-0.3,0.3-0.4c0.1-0.1,0.3-0.1,0.4-0.1c0.2,0,0.3,0.1,0.4,0.2
    c0.1,0.1,0.1,0.3,0.1,0.4l-0.1,0.2l-0.1,0.3c-0.1,0.1,0,0.3,0,0.4l6.1,1.4l0.2-1.1c0.2-0.8,0.4-1.1,0.8-1l0.1,0
    c0.2,0.1,0.3,0.3,0.3,0.5c0.1,0.2,0.1,0.4,0.1,0.7l-0.1,0.7l-0.1,0.6C168.9,118.7,168.8,118.9,168.7,119.1z" />
</svg>