<svg xmlns="http://www.w3.org/2000/svg" width="138.319" height="131.109" viewBox="0 0 138.319 131.109">
    <path id="Path_187" data-name="Path 187" d="M61.763,0h0A72,72,0,0,1,85.032,3.857,49.642,49.642,0,0,1,91.3,6.429a28.123,28.123,0,0,1,9.9,7.964,44.454,44.454,0,0,1,3.413,4.943,61.658,61.658,0,0,1,4.962,10.34,68.906,68.906,0,0,1,3.072,11.084,76.191,76.191,0,0,1,1.278,11.489,81.2,81.2,0,0,1-.42,11.557c-.815,7.562-2.527,13.79-5.234,19.04a42.052,42.052,0,0,1-2.722,4.531,50.605,50.605,0,0,1-3.216,4.174,71.806,71.806,0,0,1-7.446,7.426,57.2,57.2,0,0,1-14.8,9.472,50.619,50.619,0,0,1-8.3,2.781,49.951,49.951,0,0,1-8.851,1.3c-1.254.07-2.521.106-3.765.106a70.034,70.034,0,0,1-15.559-1.794c-2.5-.564-5.04-1.254-7.759-2.111-2.507-.79-5.12-1.707-7.988-2.8a27.1,27.1,0,0,1-7.91-4.449.818.818,0,0,1-.657-.549,48.531,48.531,0,0,1-5.688-5.357,50.179,50.179,0,0,1-4.843-6.3,51.35,51.35,0,0,1-6.5-14.574A62.358,62.358,0,0,1,.89,68.174C.555,66.047.312,63.818.167,61.55c-.137-2.145-.19-4.389-.158-6.671.03-2.141.137-4.382.316-6.661a67.77,67.77,0,0,1,1-7.77,37.024,37.024,0,0,1,2.237-7.5A34.072,34.072,0,0,1,5.688,28.8c4.1-6.835,10.289-12,16.274-16.988L22,11.779a21.45,21.45,0,0,1,3.648-2.608,80.63,80.63,0,0,1,17.63-6.824A74.772,74.772,0,0,1,61.763,0ZM59.17,111.753c1.228,0,2.478-.035,3.716-.1a49.064,49.064,0,0,0,8.695-1.274,49.731,49.731,0,0,0,8.159-2.733,56.317,56.317,0,0,0,14.574-9.328,70.93,70.93,0,0,0,7.355-7.335,49.73,49.73,0,0,0,3.16-4.1,41.17,41.17,0,0,0,2.665-4.436c2.657-5.151,4.338-11.278,5.141-18.73a80.322,80.322,0,0,0,.415-11.431,75.308,75.308,0,0,0-1.263-11.356,68.025,68.025,0,0,0-3.032-10.942,60.776,60.776,0,0,0-4.891-10.192,43.574,43.574,0,0,0-3.346-4.846,27.246,27.246,0,0,0-9.613-7.729,48.777,48.777,0,0,0-6.157-2.525A71.125,71.125,0,0,0,61.766.88h0A73.891,73.891,0,0,0,43.5,3.2a79.75,79.75,0,0,0-17.438,6.75,20.733,20.733,0,0,0-3.495,2.505l-.042.035C16.6,17.434,10.467,22.547,6.442,29.255A33.187,33.187,0,0,0,4.375,33.3a36.158,36.158,0,0,0-2.183,7.32,66.927,66.927,0,0,0-.989,7.67c-.178,2.26-.284,4.482-.314,6.6-.032,2.259.02,4.481.156,6.6.143,2.241.383,4.442.714,6.542a61.478,61.478,0,0,0,1.36,6.424A50.47,50.47,0,0,0,9.5,88.785a49.3,49.3,0,0,0,4.757,6.193,47.627,47.627,0,0,0,5.686,5.341l.116.092.037.143a.483.483,0,0,0,.015.05l.159-.01.135.114a26.124,26.124,0,0,0,7.77,4.394c2.852,1.09,5.448,2,7.938,2.787,2.7.85,5.21,1.534,7.688,2.092A69.165,69.165,0,0,0,59.17,111.753Z" transform="translate(25.448) rotate(8)" fill="#a3b18a" />
    <path id="Path_187-2" data-name="Path 187" d="M61.763,0h0A72,72,0,0,1,85.032,3.857,49.642,49.642,0,0,1,91.3,6.429a28.123,28.123,0,0,1,9.9,7.964,44.454,44.454,0,0,1,3.413,4.943,61.658,61.658,0,0,1,4.962,10.34,68.906,68.906,0,0,1,3.072,11.084,76.191,76.191,0,0,1,1.278,11.489,81.2,81.2,0,0,1-.42,11.557c-.815,7.562-2.527,13.79-5.234,19.04a42.052,42.052,0,0,1-2.722,4.531,50.605,50.605,0,0,1-3.216,4.174,71.806,71.806,0,0,1-7.446,7.426,57.2,57.2,0,0,1-14.8,9.472,50.619,50.619,0,0,1-8.3,2.781,49.951,49.951,0,0,1-8.851,1.3c-1.254.07-2.521.106-3.765.106a70.034,70.034,0,0,1-15.559-1.794c-2.5-.564-5.04-1.254-7.759-2.111-2.507-.79-5.12-1.707-7.988-2.8a27.1,27.1,0,0,1-7.91-4.449.818.818,0,0,1-.657-.549,48.531,48.531,0,0,1-5.688-5.357,50.179,50.179,0,0,1-4.843-6.3,51.35,51.35,0,0,1-6.5-14.574A62.358,62.358,0,0,1,.89,68.174C.555,66.047.312,63.818.167,61.55c-.137-2.145-.19-4.389-.158-6.671.03-2.141.137-4.382.316-6.661a67.77,67.77,0,0,1,1-7.77,37.024,37.024,0,0,1,2.237-7.5A34.072,34.072,0,0,1,5.688,28.8c4.1-6.835,10.289-12,16.274-16.988L22,11.779a21.45,21.45,0,0,1,3.648-2.608,80.63,80.63,0,0,1,17.63-6.824A74.772,74.772,0,0,1,61.763,0ZM59.17,111.753c1.228,0,2.478-.035,3.716-.1a49.064,49.064,0,0,0,8.695-1.274,49.731,49.731,0,0,0,8.159-2.733,56.317,56.317,0,0,0,14.574-9.328,70.93,70.93,0,0,0,7.355-7.335,49.73,49.73,0,0,0,3.16-4.1,41.17,41.17,0,0,0,2.665-4.436c2.657-5.151,4.338-11.278,5.141-18.73a80.322,80.322,0,0,0,.415-11.431,75.308,75.308,0,0,0-1.263-11.356,68.025,68.025,0,0,0-3.032-10.942,60.776,60.776,0,0,0-4.891-10.192,43.574,43.574,0,0,0-3.346-4.846,27.246,27.246,0,0,0-9.613-7.729,48.777,48.777,0,0,0-6.157-2.525A71.125,71.125,0,0,0,61.766.88h0A73.891,73.891,0,0,0,43.5,3.2a79.75,79.75,0,0,0-17.438,6.75,20.733,20.733,0,0,0-3.495,2.505l-.042.035C16.6,17.434,10.467,22.547,6.442,29.255A33.187,33.187,0,0,0,4.375,33.3a36.158,36.158,0,0,0-2.183,7.32,66.927,66.927,0,0,0-.989,7.67c-.178,2.26-.284,4.482-.314,6.6-.032,2.259.02,4.481.156,6.6.143,2.241.383,4.442.714,6.542a61.478,61.478,0,0,0,1.36,6.424A50.47,50.47,0,0,0,9.5,88.785a49.3,49.3,0,0,0,4.757,6.193,47.627,47.627,0,0,0,5.686,5.341l.116.092.037.143a.483.483,0,0,0,.015.05l.159-.01.135.114a26.124,26.124,0,0,0,7.77,4.394c2.852,1.09,5.448,2,7.938,2.787,2.7.85,5.21,1.534,7.688,2.092A69.165,69.165,0,0,0,59.17,111.753Z" transform="translate(15.676 3.709) rotate(8)" fill="#a3b18a" opacity="0.48" />
</svg>